<?xml version="1.0" standalone="no"?>
<!DOCTYPE svg PUBLIC "-//W3C//DTD SVG 1.1//EN" "http://www.w3.org/Graphics/SVG/1.1/DTD/svg11.dtd" >
<svg xmlns="http://www.w3.org/2000/svg" xmlns:xlink="http://www.w3.org/1999/xlink" version="1.1">
<metadata>
Created by FontForge 20170731 at Fri Jun 15 17:01:51 2018
 By Aleksey,,,
(c) 2018 Microsoft Corporation. All Rights Reserved.
Hebrew OpenType Layout logic copyright (c) 2003 &#38; 2007, Ralph Hancock &#38; John Hudson. This layout logic for Biblical Hebrew is open source software under the MIT License; see embedded license description for details.
</metadata>
<defs>
<font id="Calibri" horiz-adv-x="0" >
  <font-face 
    font-family="Calibri"
    font-weight="400"
    font-stretch="normal"
    units-per-em="2048"
    panose-1="2 15 5 2 2 2 4 3 2 4"
    ascent="1536"
    descent="-512"
    bbox="-571 -550 1390 1876.27"
    underline-thickness="134"
    underline-position="-433"
    unicode-range="U+0020-FB4F"
  />
<missing-glyph horiz-adv-x="1038" 
d="M978 1294v-1294h-934v1294h934zM891 81v1132h-762v-1132h762zM767 855q0 -59 -17.5 -105t-49 -77.5t-74.5 -49.5t-94 -21l-5 -152q0 -10 -15 -14t-41 -4q-15 0 -25 1t-16.5 3t-9.5 5t-3 9l-5 184q-2 30 12 42t38 12h18q45 0 75 12.5t48.5 33.5t26.5 50.5t8 62.5
q0 73 -41.5 116t-132.5 43q-37 0 -67 -7.5t-53 -17t-37.5 -17.5t-21.5 -8q-3 0 -6.5 2t-6.5 7.5t-4.5 15t-1.5 25.5q0 17 2.5 28t10.5 19q7 7 27 16t47.5 17.5t60.5 14.5t67 6q75 0 129 -20t88.5 -54t51.5 -80t17 -98zM549 273q0 -21 -3.5 -35t-12 -23t-23 -13t-35.5 -4
q-22 0 -36.5 4t-23.5 13t-13 23t-4 35t4 35.5t13 23.5t23.5 13t36.5 4q21 0 35.5 -4t23 -13t12 -23.5t3.5 -35.5zM0 -397z" />
    <glyph glyph-name=".notdef" horiz-adv-x="1038" 
d="M978 1294v-1294h-934v1294h934zM891 81v1132h-762v-1132h762zM767 855q0 -59 -17.5 -105t-49 -77.5t-74.5 -49.5t-94 -21l-5 -152q0 -10 -15 -14t-41 -4q-15 0 -25 1t-16.5 3t-9.5 5t-3 9l-5 184q-2 30 12 42t38 12h18q45 0 75 12.5t48.5 33.5t26.5 50.5t8 62.5
q0 73 -41.5 116t-132.5 43q-37 0 -67 -7.5t-53 -17t-37.5 -17.5t-21.5 -8q-3 0 -6.5 2t-6.5 7.5t-4.5 15t-1.5 25.5q0 17 2.5 28t10.5 19q7 7 27 16t47.5 17.5t60.5 14.5t67 6q75 0 129 -20t88.5 -54t51.5 -80t17 -98zM549 273q0 -21 -3.5 -35t-12 -23t-23 -13t-35.5 -4
q-22 0 -36.5 4t-23.5 13t-13 23t-4 35t4 35.5t13 23.5t23.5 13t36.5 4q21 0 35.5 -4t23 -13t12 -23.5t3.5 -35.5zM0 -397z" />
    <glyph glyph-name="glyph1" 
 />
    <glyph glyph-name="uni000D" 
 />
    <glyph glyph-name="space" unicode=" " horiz-adv-x="463" 
 />
    <glyph glyph-name="hyphen" horiz-adv-x="627" 
d="M558 505q0 -39 -9 -54t-26 -15h-418q-18 0 -27 15.5t-9 53.5t9 53t27 15h418q8 0 14.5 -3t11 -11.5t7 -21.5t2.5 -32z" />
    <glyph glyph-name="colon" horiz-adv-x="548" 
d="M397 800q0 -32 -4.5 -54t-17 -35.5t-32.5 -19t-51 -5.5q-32 0 -52 5.5t-32 19t-16.5 35.5t-4.5 54q0 34 4.5 56.5t16.5 36t32 19t52 5.5q31 0 51 -5.5t32.5 -19t17 -36t4.5 -56.5zM397 106q0 -33 -4.5 -55t-17 -35.5t-32.5 -19t-51 -5.5q-32 0 -52 5.5t-32 19t-16.5 35.5
t-4.5 55t4.5 55.5t16.5 35.5t32 19t52 6q31 0 51 -6t32.5 -19t17 -35.5t4.5 -55.5z" />
    <glyph glyph-name="dieresis" horiz-adv-x="804" 
d="M318 1217q0 -55 -20 -75t-74 -20t-73 19.5t-19 72.5q0 56 19.5 76t73.5 20q55 0 74 -20t19 -73zM672 1217q0 -55 -20 -75t-74 -20t-73 19.5t-19 72.5q0 56 19.5 76t73.5 20q55 0 74 -20t19 -73zM0 951z" />
    <glyph glyph-name="dotaccent" horiz-adv-x="462" 
d="M331 1232q0 -56 -22 -77t-79 -21q-56 0 -77 20.5t-21 74.5q0 56 21.5 77t78.5 21q56 0 77.5 -20.5t21.5 -74.5zM0 951z" />
    <glyph glyph-name="uni0591" unicode="&#x591;" 
d="M0 -144q59 0 59 -26v-120q150 -27 150 -169v-65q0 -26 -59 -26t-59 26v55q0 86 -91 86t-91 -86v-55q0 -26 -59 -26t-59 26v55q0 144 150 179v120q0 26 59 26z" />
    <glyph glyph-name="uni0592" unicode="&#x592;" 
d="M-62 1271q0 -45 -16 -60.5t-57 -15.5q-40 0 -56 15t-16 60t16.5 60t57.5 15q40 0 55.5 -15t15.5 -59zM73 1505q0 -45 -16.5 -60.5t-57.5 -15.5q-40 0 -56 15t-16 59q0 45 16.5 60.5t57.5 15.5q40 0 56 -15t16 -59zM207 1271q0 -45 -16.5 -60.5t-57.5 -15.5
q-40 0 -55.5 15t-15.5 60t16 60t57 15q40 0 56 -14.5t16 -59.5z" />
    <glyph glyph-name="uni0593" unicode="&#x593;" 
d="M145 1399q13 -5 18 -10.5t7.5 -15.5t2.5 -28q0 -19 -2.5 -28.5t-8 -15t-17.5 -10.5l-284 -108q-17 -6 -25.5 1.5t-8.5 38.5q0 26 6 37t22 17l179 68l-179 68q-13 5 -18 11t-7.5 15.5t-2.5 28.5t2.5 28t8 14.5t17.5 10.5l179 68l-179 68q-13 5 -18 10.5t-7.5 15.5t-2.5 28
q0 20 2.5 29.5t8 15t17.5 10.5l284 107q17 7 25.5 -1t8.5 -39q0 -26 -6 -36.5t-22 -16.5l-179 -69l179 -69q13 -4 18 -9.5t7.5 -15.5t2.5 -28q0 -19 -2.5 -28.5t-8 -15.5t-17.5 -10l-179 -68z" />
    <glyph glyph-name="uni0594" unicode="&#x594;" 
d="M-73 1505q0 45 16.5 60.5t57.5 15.5q40 0 56 -15t16 -60q0 -44 -16.5 -59.5t-57.5 -15.5q-40 0 -56 14.5t-16 59.5zM-73 1270q0 45 16.5 60t57.5 15q40 0 56 -14.5t16 -59.5t-16.5 -60.5t-57.5 -15.5q-40 0 -56 15t-16 60z" />
    <glyph glyph-name="uni0595" unicode="&#x595;" 
d="M-180 1546q0 16 13.5 24.5t46.5 8.5t47 -8.5t14 -24.5v-316q0 -17 -14 -25.5t-47 -8.5t-46.5 8.5t-13.5 25.5v316zM36 1505q0 45 16.5 60.5t56.5 15.5t56 -15t16 -60q0 -44 -16.5 -59.5t-57.5 -15.5q-39 0 -55 14.5t-16 59.5zM36 1270q0 45 16.5 60t56.5 15t56 -14.5
t16 -59.5t-16.5 -60.5t-57.5 -15.5q-39 0 -55 15t-16 60z" />
    <glyph glyph-name="uni0596" unicode="&#x596;" 
d="M126 -516q-305 0 -305 313v35q0 26 59 26t59 -26v-34q0 -205 189 -205h24q27 0 27 -54q0 -55 -27 -55h-26z" />
    <glyph glyph-name="uni0597" unicode="&#x597;" 
d="M0 1366q21 0 52 -31.5t31 -52.5q0 -22 -31 -53t-52 -31t-52 31t-31 53q0 21 31 52.5t52 31.5z" />
    <glyph glyph-name="uni0598" unicode="&#x598;" 
d="M139 1199q-47 0 -80.5 15.5t-56 39.5t-38.5 51t-31 51.5t-32 40t-42 15.5q-29 0 -46 -20.5t-17 -54.5q0 -25 3 -42t5.5 -28t5 -19.5t2.5 -16.5q0 -12 -11 -17t-36 -5q-24 0 -37 2t-20 10q-12 11 -18.5 39t-6.5 72q0 88 47.5 137.5t130.5 49.5q47 0 80.5 -15.5t56 -39.5
t38.5 -51t31 -51.5t32 -40t42 -15.5q29 0 46 20.5t17 54.5q0 25 -3 42t-5.5 28t-5 19.5t-2.5 16.5q0 12 11 17t36 5q24 0 36.5 -2t20.5 -10q12 -12 18.5 -40t6.5 -71q0 -88 -47.5 -137.5t-130.5 -49.5z" />
    <glyph glyph-name="uni0599" unicode="&#x599;" 
d="M-518 1572q305 0 305 -313v-34q0 -27 -59 -27t-59 27v33q0 205 -189 205h-24q-27 0 -27 54q0 55 27 55h26z" />
    <glyph glyph-name="uni059A" unicode="&#x59a;" 
d="M136 -327l135 -141q11 -11 11 -21.5t-14.5 -17t-45.5 -6.5q-36 0 -52.5 5t-32.5 21l-118 117q-19 19 -19 44t19 44l118 118q16 16 32.5 20.5t52.5 4.5q31 0 45.5 -6.5t14.5 -16.5t-11 -21z" />
    <glyph glyph-name="uni059B" unicode="&#x59b;" 
d="M-152 -518q-27 0 -27 55q0 54 27 54h30q183 0 183 200v39q0 26 59 26t59 -26v-30q0 -318 -311 -318h-20zM-164 -158.5q15 14.5 54 14.5q38 0 52.5 -14t14.5 -57q0 -42 -15 -56.5t-54 -14.5q-37 0 -52 14t-15 57q0 42 15 56.5z" />
    <glyph glyph-name="uni059C" unicode="&#x59c;" 
d="M152 1572q27 0 27 -55q0 -54 -27 -54h-30q-183 0 -183 -200v-38q0 -27 -59 -27t-59 27v29q0 318 311 318h20z" />
    <glyph glyph-name="uni059D" unicode="&#x59d;" 
d="M544 1572q27 0 27 -55q0 -54 -27 -54h-30q-183 0 -183 -200v-38q0 -27 -59 -27t-59 27v29q0 318 311 318h20z" />
    <glyph glyph-name="uni059E" unicode="&#x59e;" 
d="M-31 1572q26 0 26 -55q0 -54 -26 -54h-12q-148 0 -148 -200v-38q0 -27 -59 -27t-59 27v29q0 318 277 318h1zM282 1572q27 0 27 -55q0 -54 -27 -54h-11q-149 0 -149 -200v-38q0 -27 -59 -27q-58 0 -58 27v29q0 318 276 318h1z" />
    <glyph glyph-name="uni059F" unicode="&#x59f;" 
d="M-172 1407q0 40 -20.5 61t-58.5 21q-41 0 -60.5 -20t-19.5 -60q0 -39 21 -60t59 -21q40 0 59.5 20t19.5 59zM-32 1253q4 -5 5.5 -7.5t1.5 -7.5t-5.5 -14.5t-15.5 -19t-18.5 -15t-14 -5.5t-8.5 1.5t-7 5.5l-68 68q-38 -15 -92 -15q-92 0 -137.5 42.5t-45.5 120.5
q0 77 48 122t141 45q92 0 137.5 -42.5t45.5 -121.5q0 -57 -27 -97zM172 1409q0 -39 20.5 -60t58.5 -21q41 0 60.5 20t19.5 59q0 40 -21 61t-59 21q-40 0 -59.5 -20t-19.5 -60zM90 1311q-25 38 -25 96q0 77 48 122t141 45q92 0 137.5 -42.5t45.5 -121.5q0 -76 -48 -121
t-141 -45q-51 0 -88 13l-66 -66q-4 -4 -7 -5.5t-8.5 -1.5t-14 5.5t-18.5 15t-15.5 19t-5.5 14.5t1.5 8t5.5 7z" />
    <glyph glyph-name="uni05A0" unicode="&#x5a0;" 
d="M-59 1409q0 -39 20.5 -60t58.5 -21q41 0 60.5 20t19.5 59q0 40 -21 61t-59 21q-40 0 -59.5 -20t-19.5 -60zM-141 1311q-25 38 -25 96q0 77 48 122t141 45q92 0 137.5 -42.5t45.5 -121.5q0 -76 -48 -121t-141 -45q-51 0 -88 13l-66 -66q-4 -4 -7 -5.5t-8.5 -1.5t-14 5.5
t-18.5 15t-15.5 19t-5.5 14.5t1.5 8t5.5 7z" />
    <glyph glyph-name="uni05A1" unicode="&#x5a1;" 
d="M-128 1196q-58 0 -58 26v325q0 26 58 26q59 0 59 -26v-136q138 0 138 102v34q0 26 59 26q58 0 58 -26v-28q0 -201 -255 -201v-96q0 -26 -59 -26z" />
    <glyph glyph-name="uni05A2" unicode="&#x5a2;" 
d="M0 -550q-59 0 -59 26v120q-150 27 -150 169v65q0 26 59 26t59 -26v-55q0 -86 91 -86t91 86v55q0 26 59 26t59 -26v-55q0 -144 -150 -179v-120q0 -26 -59 -26z" />
    <glyph glyph-name="uni05A3" unicode="&#x5a3;" 
d="M-171 -444q0 31 8.5 43.5t25.5 12.5h188v213q0 17 13.5 25t46.5 8q32 0 45.5 -8t13.5 -25v-273q0 -25 -13.5 -38.5t-38.5 -13.5h-255q-17 0 -25.5 12.5t-8.5 43.5z" />
    <glyph glyph-name="uni05A4" unicode="&#x5a4;" 
d="M-26 -327l135 -141q11 -11 11 -21.5t-14.5 -17t-45.5 -6.5q-36 0 -52.5 5t-32.5 21l-118 117q-19 19 -19 44t19 44l118 118q16 16 32.5 20.5t52.5 4.5q31 0 45.5 -6.5t14.5 -16.5t-11 -21z" />
    <glyph glyph-name="uni05A5" unicode="&#x5a5;" 
d="M-152 -516q-27 0 -27 55q0 54 27 54h30q183 0 183 200v39q0 26 59 26t59 -26v-30q0 -318 -311 -318h-20z" />
    <glyph glyph-name="uni05A6" unicode="&#x5a6;" 
d="M51 -516q-26 0 -26 55q0 54 26 54h12q148 0 148 200v39q0 26 59 26t59 -26v-30q0 -318 -277 -318h-1zM-302 -516q-27 0 -27 55q0 54 27 54h11q149 0 149 200v39q0 26 58 26q59 0 59 -26v-30q0 -318 -276 -318h-1z" />
    <glyph glyph-name="uni05A7" unicode="&#x5a7;" 
d="M154 -422q0 -38 -20.5 -67t-59.5 -45t-91 -16q-43 0 -81.5 8t-47.5 16q-5 5 -6.5 12.5t-1.5 26.5t4 27.5t15 8.5q7 0 45 -10t74 -10q34 0 47.5 10.5t13.5 29.5q0 17 -15 29t-72 29t-83.5 45t-26.5 73q0 38 21 66t58 42.5t87 14.5q38 0 71 -7t41 -14q4 -5 5.5 -12.5
t1.5 -25.5q0 -19 -3.5 -26t-12.5 -7q-7 0 -41.5 7.5t-61.5 7.5q-33 0 -46.5 -10t-13.5 -28t16 -28.5t72.5 -27.5t84 -45t27.5 -74z" />
    <glyph glyph-name="uni05A8" unicode="&#x5a8;" 
d="M-126 1572q305 0 305 -313v-34q0 -27 -59 -27t-59 27v33q0 205 -189 205h-24q-27 0 -27 54q0 55 27 55h26z" />
    <glyph glyph-name="uni05A9" unicode="&#x5a9;" 
d="M59 1407q0 40 -20.5 61t-58.5 21q-41 0 -60.5 -20t-19.5 -60q0 -39 21 -60t59 -21q40 0 59.5 20t19.5 59zM199 1253q4 -5 5.5 -7.5t1.5 -7.5t-5.5 -14.5t-15.5 -19t-18.5 -15t-14 -5.5t-8.5 1.5t-7 5.5l-68 68q-38 -15 -92 -15q-92 0 -137.5 42.5t-45.5 120.5
q0 77 48 122t141 45q92 0 137.5 -42.5t45.5 -121.5q0 -57 -27 -97z" />
    <glyph glyph-name="uni05AA" unicode="&#x5aa;" 
d="M0 -550q-59 0 -59 26v120q-150 27 -150 169v65q0 26 59 26t59 -26v-55q0 -86 91 -86t91 86v55q0 26 59 26t59 -26v-55q0 -144 -150 -179v-120q0 -26 -59 -26z" />
    <glyph glyph-name="uni05AB" unicode="&#x5ab;" 
d="M-25 1381l135 -142q11 -11 11 -21t-15 -16.5t-46 -6.5q-35 0 -52 4.5t-33 20.5l-117 118q-19 19 -19 44t19 44l117 118q16 16 33 20.5t52 4.5q31 0 46 -6.5t15 -17t-11 -21.5z" />
    <glyph glyph-name="uni05AC" unicode="&#x5ac;" 
d="M-171 1267q0 30 8.5 43t25.5 13h188v213q0 16 13.5 24.5t46.5 8.5q32 0 45.5 -8.5t13.5 -24.5v-273q0 -25 -13.5 -39t-38.5 -14h-255q-17 0 -25.5 13t-8.5 44z" />
    <glyph glyph-name="uni05AD" unicode="&#x5ad;" 
d="M305 -516q-305 0 -305 313v35q0 26 59 26t59 -26v-34q0 -205 189 -205h24q27 0 27 -54q0 -55 -27 -55h-26z" />
    <glyph glyph-name="uni05AE" unicode="&#x5ae;" 
d="M21 1199q-47 0 -80.5 15.5t-56 39.5t-38.5 51t-31 51.5t-32 40t-42 15.5q-29 0 -46 -20.5t-17 -54.5q0 -25 3 -42t5.5 -28t5 -19.5t2.5 -16.5q0 -12 -11 -17t-36 -5q-24 0 -37 2t-20 10q-12 11 -18.5 39t-6.5 72q0 88 47.5 137.5t130.5 49.5q47 0 80.5 -15.5t56 -39.5
t38.5 -51t31 -51.5t32 -40t42 -15.5q29 0 46 20.5t17 54.5q0 25 -3 42t-5.5 28t-5 19.5t-2.5 16.5q0 12 11 17t36 5q24 0 36.5 -2t20.5 -10q12 -12 18.5 -40t6.5 -71q0 -88 -47.5 -137.5t-130.5 -49.5z" />
    <glyph glyph-name="uni05AF" unicode="&#x5af;" 
d="M201 1385q0 -84 -55 -133.5t-150 -49.5t-146 47t-51 133q0 83 55 132.5t150 49.5t146 -46.5t51 -132.5zM88 1381q0 46 -22 70.5t-66 24.5q-42 0 -65 -24t-23 -66q0 -46 22 -71t66 -25q42 0 65 24t23 67z" />
    <glyph glyph-name="uni05B0" unicode="&#x5b0;" 
d="M145 -449q0 -45 -16.5 -60t-56.5 -15t-56 14.5t-16 59.5t16.5 60t57.5 15q39 0 55 -14.5t16 -59.5zM145 -213q0 -45 -16.5 -60.5t-56.5 -15.5t-56 15t-16 59q0 45 16.5 60.5t57.5 15.5q39 0 55 -15t16 -59z" />
    <glyph glyph-name="uni05B1" unicode="&#x5b1;" 
d="M268 -215q0 45 16.5 60.5t57.5 15.5q40 0 55.5 -15t15.5 -59q0 -45 -16 -60.5t-57 -15.5q-40 0 -56 15t-16 59zM134 -448q0 45 16.5 60t57.5 15q39 0 55 -14.5t16 -59.5t-16.5 -60.5t-56.5 -15.5t-56 15t-16 60zM0 -215q0 45 16.5 60.5t57.5 15.5q39 0 55 -15t16 -59
q0 -45 -16.5 -60.5t-56.5 -15.5t-56 15t-16 59zM682 -449q0 -45 -16.5 -60t-57.5 -15q-40 0 -56 14.5t-16 59.5t16.5 60t57.5 15q40 0 56 -14.5t16 -59.5zM682 -213q0 -45 -16.5 -60.5t-57.5 -15.5q-40 0 -56 15t-16 59q0 45 16.5 60.5t57.5 15.5q40 0 56 -15t16 -59z" />
    <glyph glyph-name="uni05B2" unicode="&#x5b2;" 
d="M380 -153q17 0 25 -13t8 -44q0 -30 -8 -43t-25 -13h-347q-16 0 -24.5 13t-8.5 43q0 31 8.5 44t24.5 13h347zM682 -449q0 -45 -16.5 -60t-57.5 -15q-40 0 -56 14.5t-16 59.5t16.5 60t57.5 15q40 0 56 -14.5t16 -59.5zM682 -213q0 -45 -16.5 -60.5t-57.5 -15.5
q-40 0 -56 15t-16 59q0 45 16.5 60.5t57.5 15.5q40 0 56 -15t16 -59z" />
    <glyph glyph-name="uni05B3" unicode="&#x5b3;" 
d="M264 -261v-223q0 -16 -13 -24.5t-44 -8.5q-32 0 -44.5 8.5t-12.5 24.5v223h-117q-16 0 -24.5 12t-8.5 41q0 31 8.5 43t24.5 12h348q16 0 24 -12t8 -42t-8 -42t-24 -12h-117zM682 -449q0 -45 -16.5 -60t-57.5 -15q-40 0 -56 14.5t-16 59.5t16.5 60t57.5 15q40 0 56 -14.5
t16 -59.5zM682 -213q0 -45 -16.5 -60.5t-57.5 -15.5q-40 0 -56 15t-16 59q0 45 16.5 60.5t57.5 15.5q40 0 56 -15t16 -59z" />
    <glyph glyph-name="uni05B4" unicode="&#x5b4;" 
d="M0 -226q0 45 16.5 60t57.5 15q39 0 55 -14.5t16 -59.5t-16.5 -60.5t-56.5 -15.5t-56 15t-16 60z" />
    <glyph glyph-name="uni05B5" unicode="&#x5b5;" 
d="M145 -225q0 -45 -16.5 -60.5t-56.5 -15.5t-56 15t-16 60t16.5 60t57.5 15q39 0 55 -14.5t16 -59.5zM413 -225q0 -45 -16 -60.5t-57 -15.5q-40 0 -56 15.5t-16 59.5q0 45 16.5 60t57.5 15q40 0 55.5 -14.5t15.5 -59.5z" />
    <glyph glyph-name="uni05B6" unicode="&#x5b6;" 
d="M268 -215q0 45 16.5 60.5t57.5 15.5q40 0 55.5 -15t15.5 -59q0 -45 -16 -60.5t-57 -15.5q-40 0 -56 15t-16 59zM134 -448q0 45 16.5 60t57.5 15q39 0 55 -14.5t16 -59.5t-16.5 -60.5t-56.5 -15.5t-56 15t-16 60zM0 -215q0 45 16.5 60.5t57.5 15.5q39 0 55 -15t16 -59
q0 -45 -16.5 -60.5t-56.5 -15.5t-56 15t-16 59z" />
    <glyph glyph-name="uni05B7" unicode="&#x5b7;" 
d="M380 -153q17 0 25 -13t8 -44q0 -30 -8 -43t-25 -13h-347q-16 0 -24.5 13t-8.5 43q0 31 8.5 44t24.5 13h347z" />
    <glyph glyph-name="uni05B8" unicode="&#x5b8;" 
d="M264 -261v-223q0 -16 -13 -24.5t-44 -8.5q-32 0 -44.5 8.5t-12.5 24.5v223h-117q-16 0 -24.5 12t-8.5 41q0 31 8.5 43t24.5 12h348q16 0 24 -12t8 -42t-8 -42t-24 -12h-117z" />
    <glyph glyph-name="uni05B9" unicode="&#x5b9;" 
d="M73 1283q0 -45 -16.5 -60.5t-57.5 -15.5q-40 0 -56 15t-16 59q0 45 16.5 60.5t57.5 15.5q40 0 56 -15t16 -59z" />
    <glyph glyph-name="uni05BA" unicode="&#x5ba;" 
d="M73 1283q0 -45 -16.5 -60.5t-57.5 -15.5q-40 0 -56 15t-16 59q0 45 16.5 60.5t57.5 15.5q40 0 56 -15t16 -59z" />
    <glyph glyph-name="uni05BB" unicode="&#x5bb;" 
d="M268 -316q0 44 16.5 59.5t57.5 15.5q40 0 55.5 -14.5t15.5 -59.5t-16 -60.5t-57 -15.5q-40 0 -56 15t-16 60zM0 -215q0 45 16.5 60.5t57.5 15.5q39 0 55 -15t16 -59q0 -45 -16.5 -60.5t-56.5 -15.5t-56 15t-16 59zM682 -417q0 -45 -16.5 -60.5t-57.5 -15.5q-40 0 -56 15
t-16 60t16.5 60t57.5 15q40 0 56 -14.5t16 -59.5z" />
    <glyph glyph-name="uni05BC" unicode="&#x5bc;" 
d="M-73 531q0 45 16.5 60.5t57.5 15.5q40 0 56 -15t16 -59q0 -45 -16.5 -60.5t-57.5 -15.5q-40 0 -56 15t-16 59z" />
    <glyph glyph-name="uni05BD" unicode="&#x5bd;" 
d="M60 -489q0 -17 -13.5 -25.5t-46.5 -8.5t-47 8.5t-14 25.5v316q0 16 14 24.5t47 8.5t46.5 -8.5t13.5 -24.5v-316z" />
    <glyph glyph-name="uni05BE" unicode="&#x5be;" horiz-adv-x="627" 
d="M558 988q0 -39 -9 -54t-26 -15h-418q-18 0 -27 15.5t-9 53.5t9 53t27 15h418q8 0 14.5 -3t11 -11.5t7 -21.5t2.5 -32z" />
    <glyph glyph-name="uni05BF" unicode="&#x5bf;" 
d="M-173 1210q-17 0 -25.5 12.5t-8.5 43.5t8.5 43.5t25.5 12.5h346q17 0 25.5 -12.5t8.5 -43.5t-8.5 -43.5t-25.5 -12.5h-346z" />
    <glyph glyph-name="uni05C0" unicode="&#x5c0;" horiz-adv-x="478" 
d="M316 26q0 -17 -18 -24.5t-60 -7.5q-40 0 -58.5 7.5t-18.5 24.5v1337q0 16 18.5 24t58.5 8q42 0 60 -8t18 -24v-1337z" />
    <glyph glyph-name="uni05C1" unicode="&#x5c1;" 
d="M1302 1283q0 -45 -16.5 -60.5t-57.5 -15.5q-40 0 -56 15t-16 59q0 45 16.5 60.5t57.5 15.5q40 0 56 -15t16 -59z" />
    <glyph glyph-name="uni05C2" unicode="&#x5c2;" 
d="M233 1283q0 -45 -16.5 -60.5t-57.5 -15.5q-40 0 -56 15t-16 59q0 45 16.5 60.5t57.5 15.5q40 0 56 -15t16 -59z" />
    <glyph glyph-name="uni05C3" unicode="&#x5c3;" horiz-adv-x="548" 
d="M360 800q0 -32 -4.5 -54t-17 -35.5t-32.5 -19t-51 -5.5q-32 0 -52 5.5t-32 19t-16.5 35.5t-4.5 54q0 34 4.5 56.5t16.5 36t32 19t52 5.5q31 0 51 -5.5t32.5 -19t17 -36t4.5 -56.5zM360 106q0 -33 -4.5 -55t-17 -35.5t-32.5 -19t-51 -5.5q-32 0 -52 5.5t-32 19t-16.5 35.5
t-4.5 55t4.5 55.5t16.5 35.5t32 19t52 6q31 0 51 -6t32.5 -19t17 -35.5t4.5 -55.5z" />
    <glyph glyph-name="uni05C4" unicode="&#x5c4;" 
d="M88 1494q0 -53 -19.5 -72t-69.5 -19q-49 0 -68 18t-19 72q0 53 19.5 71.5t69.5 18.5q49 0 68 -18t19 -71z" />
    <glyph glyph-name="uni05C5" unicode="&#x5c5;" 
d="M88 -431q0 -54 -19.5 -72.5t-69.5 -18.5q-49 0 -68 18t-19 71q0 54 19.5 72.5t69.5 18.5q49 0 68 -18t19 -71z" />
    <glyph glyph-name="uni05C6" unicode="&#x5c6;" horiz-adv-x="747" 
d="M148 60v569q0 176 32.5 265.5t107.5 128.5t215 39q62 0 136 -11q14 -3 19 -18.5t5 -55.5q0 -33 -4 -49.5t-15 -16.5q-6 0 -51.5 5.5t-98.5 5.5q-84 0 -117.5 -21.5t-46.5 -76.5t-13 -181v-502h357q15 0 22 -17t7 -54t-7 -53.5t-22 -16.5h-466q-28 0 -44 16t-16 44z" />
    <glyph glyph-name="uni05C7" unicode="&#x5c7;" 
d="M264 -261v-223q0 -16 -13 -24.5t-44 -8.5q-32 0 -44.5 8.5t-12.5 24.5v223h-117q-16 0 -24.5 12t-8.5 41q0 31 8.5 43t24.5 12h348q16 0 24 -12t8 -42t-8 -42t-24 -12h-117z" />
    <glyph glyph-name="uni05D0" unicode="&#x5d0;" horiz-adv-x="1099" 
d="M981 857q0 -78 -9.5 -128.5t-32.5 -95t-64.5 -96.5t-126.5 -138l240 -337q12 -16 16.5 -26t4.5 -17q0 -14 -19.5 -19.5t-64.5 -5.5q-36 0 -58 2.5t-35 8.5t-23 20l-419 595q-48 -65 -66 -106.5t-25 -95t-7 -178.5v-215q0 -17 -19.5 -24t-64.5 -7q-46 0 -65.5 7t-19.5 24
v210q0 143 14 215.5t48.5 139t111.5 163.5l-172 243q-11 15 -15 24.5t-4 16.5q0 14 19.5 19.5t65.5 5.5q50 0 72.5 -5.5t35.5 -24.5l359 -506q75 78 103 120t39.5 88.5t11.5 117.5v179q0 17 19.5 24t65.5 7q45 0 64.5 -7t19.5 -24v-174z" />
    <glyph glyph-name="uni05D1" unicode="&#x5d1;" horiz-adv-x="1011" 
d="M987 69q0 -36 -7 -52.5t-22 -16.5h-886q-15 0 -22 16.5t-7 52.5q0 38 7 55t22 17h582q-34 146 -34 301v143q0 160 -11 209t-39 76t-80.5 39.5t-142.5 12.5q-52 0 -111.5 -4t-120.5 -13q-16 -2 -23 13.5t-7 51.5q0 41 6.5 55.5t24.5 17.5q57 10 118.5 14.5t117.5 4.5
q131 0 215 -22.5t132 -70.5t69 -128.5t21 -242.5v-158q0 -153 32 -299h137q14 0 21.5 -17t7.5 -55z" />
    <glyph glyph-name="uni05D2" unicode="&#x5d2;" horiz-adv-x="755" 
d="M680 44q4 -22 -2.5 -31.5t-23 -14t-56.5 -4.5q-35 0 -51.5 2.5t-24.5 10t-11 23.5l-36 230l-372 -256q-29 -21 -46 -21t-24.5 21.5t-7.5 64.5q0 50 8 67t34 34l382 252l-48 301q-15 90 -31.5 127t-45.5 52t-85 15h-107q-15 0 -22 16.5t-7 53.5q0 36 7 52.5t22 16.5h126
q100 0 160.5 -29.5t96 -95t53.5 -182.5z" />
    <glyph glyph-name="uni05D3" unicode="&#x5d3;" horiz-adv-x="911" 
d="M886 986q0 -36 -6.5 -53t-22.5 -17h-129q-35 -170 -35 -304v-587q0 -17 -19.5 -24t-65.5 -7q-45 0 -64.5 7t-19.5 24v583q0 130 38 308h-509q-15 0 -22 17t-7 53t7 53t22 17h804q16 0 22.5 -17t6.5 -53z" />
    <glyph glyph-name="uni05D4" unicode="&#x5d4;" horiz-adv-x="1167" 
d="M1018 25q0 -18 -19.5 -24.5t-63.5 -6.5q-46 0 -66 7t-20 24v556q0 114 -16 175t-53 95.5t-101.5 49.5t-171.5 15h-337q-17 0 -23.5 16.5t-6.5 52.5q0 37 7 54t24 17h349q142 0 237 -24t152 -75t83 -136t26 -227v-569zM322 25q0 -17 -19.5 -24t-65.5 -7t-65 7t-19 24v563
q0 17 19 24.5t65 7.5t65.5 -7.5t19.5 -24.5v-563z" />
    <glyph glyph-name="uni05D5" unicode="&#x5d5;" horiz-adv-x="474" 
d="M322 25q0 -17 -19.5 -24t-65.5 -7t-65 7t-19 24v1006q0 17 19 24t65 7t65.5 -7t19.5 -24v-1006z" />
    <glyph glyph-name="uni05D6" unicode="&#x5d6;" horiz-adv-x="595" 
d="M355 804q-9 -58 -9 -104q0 -52 10 -143l60 -530q3 -18 -16.5 -25.5t-67.5 -7.5q-46 0 -64.5 7t-21.5 26l-60 530q-9 78 -9 136q0 50 9 111l18 112h-147q-17 0 -25 17.5t-8 51.5q0 36 8 53.5t25 17.5h481q17 0 25 -17.5t8 -53.5q0 -34 -8 -51.5t-25 -17.5h-165z" />
    <glyph glyph-name="uni05D7" unicode="&#x5d7;" horiz-adv-x="1181" 
d="M322 25q0 -17 -19 -24t-66 -7t-65.5 7t-18.5 24v960q0 28 12.5 44.5t39.5 18.5q65 7 155.5 10.5t181.5 3.5q192 0 298.5 -49t149.5 -148.5t43 -270.5v-569q0 -17 -19 -24t-66 -7q-45 0 -64.5 7t-19.5 24v556q0 140 -25.5 209.5t-93.5 100.5t-206 31q-111 0 -217 -6v-891z
" />
    <glyph glyph-name="uni05D8" unicode="&#x5d8;" horiz-adv-x="1134" 
d="M1044 671q0 -210 -73.5 -366t-210 -239t-321.5 -83q-99 0 -182 14q-32 5 -48 22.5t-20 50.5l-80 946q-2 29 16 37t68 8t66.5 -5.5t18.5 -27.5l76 -896q41 -8 99 -8q129 0 223.5 62t144 182.5t49.5 288.5v8q0 92 -20 146t-60.5 79.5t-104.5 25.5h-108q-16 0 -22.5 17
t-6.5 53t6.5 53t22.5 17h123q116 0 192 -41t114 -125.5t38 -210.5v-8z" />
    <glyph glyph-name="uni05D9" unicode="&#x5d9;" horiz-adv-x="474" 
d="M322 461q0 -17 -19.5 -24t-65.5 -7t-65 7t-19 24v570q0 17 19 24t65 7t65.5 -7t19.5 -24v-570z" />
    <glyph glyph-name="uni05DA" unicode="&#x5da;" horiz-adv-x="912" 
d="M763 -333q0 -17 -18.5 -24t-65.5 -7t-66 7t-19 24v961q0 148 -18.5 200t-69.5 73t-166 21q-59 0 -131 -3t-155 -10q-16 -1 -23 13.5t-7 51.5q0 41 6.5 56t25.5 17q136 15 289 15q165 0 254.5 -37.5t126.5 -122t37 -264.5v-971z" />
    <glyph glyph-name="uni05DB" unicode="&#x5db;" horiz-adv-x="974" 
d="M837 566q0 -213 -30 -506q-3 -30 -19 -45t-44 -15h-669q-16 0 -22.5 17t-6.5 52q0 38 7 55t22 17h572q21 269 21 414q0 169 -24.5 239.5t-85.5 99t-195 28.5q-105 0 -247 -17q-17 -1 -23.5 14t-6.5 51q0 41 6.5 56t25.5 18q124 18 253 18q186 0 284 -43t140 -144.5
t42 -308.5z" />
    <glyph glyph-name="uni05DC" unicode="&#x5dc;" horiz-adv-x="888" 
d="M802 790q0 -70 -31.5 -159.5t-99.5 -213.5l-214 -390q-10 -19 -35 -26t-75 -7q-43 0 -59 5.5t-16 21.5q0 9 8 25l217 390q70 127 101.5 206.5t31.5 136.5q0 50 -22 79t-70.5 43.5t-128.5 14.5h-321q-29 0 -44.5 16t-15.5 44v386q0 17 18.5 24t65.5 7t66 -7t19 -24v-306
h231q98 0 169 -16.5t116.5 -49.5t67 -82.5t21.5 -117.5z" />
    <glyph glyph-name="uni05DD" unicode="&#x5dd;" horiz-adv-x="1198" 
d="M881 581q0 150 -28 217.5t-96.5 95.5t-199.5 28q-129 0 -235 -6v-775h559v440zM213 0q-29 0 -44.5 16t-15.5 44v925q0 29 13 45t39 18q155 14 355 14q139 0 232 -25.5t149.5 -78.5t82.5 -139.5t26 -224.5v-534q0 -28 -16 -44t-44 -16h-777z" />
    <glyph glyph-name="uni05DE" unicode="&#x5de;" horiz-adv-x="1189" 
d="M347 881q94 97 186 145.5t181 48.5q119 0 193.5 -56t109.5 -171.5t35 -300.5q0 -113 -6.5 -241t-16.5 -246q-3 -30 -18.5 -45t-44.5 -15h-450q-15 0 -22.5 16.5t-7.5 53.5t7 54t22 17h353q15 224 15 393q0 154 -19.5 238.5t-62 122t-117.5 37.5q-68 0 -142.5 -47.5
t-164.5 -147.5l-122 -712q-2 -17 -22.5 -24t-66.5 -7q-45 0 -63.5 6.5t-16.5 24.5l117 684q6 36 1 63t-25 73l-68 151q-10 23 -11 35t6.5 18.5t25 9.5t51.5 3q50 0 68.5 -5t27.5 -25z" />
    <glyph glyph-name="uni05DF" unicode="&#x5df;" horiz-adv-x="474" 
d="M322 -333q0 -17 -19.5 -24t-65.5 -7t-65 7t-19 24v1364q0 17 19 24t65 7t65.5 -7t19.5 -24v-1364z" />
    <glyph glyph-name="uni05E0" unicode="&#x5e0;" horiz-adv-x="747" 
d="M598 60q0 -28 -15.5 -44t-44.5 -16h-466q-14 0 -21.5 16.5t-7.5 53.5t7.5 54t21.5 17h357v488q0 138 -14 194.5t-50.5 77.5t-125.5 21q-51 0 -134 -11q-12 -2 -17 14t-5 50q0 40 5.5 55t19.5 18q81 14 156 14q102 0 165.5 -21t99.5 -66.5t52.5 -123t16.5 -208.5v-583z
" />
    <glyph glyph-name="uni05E1" unicode="&#x5e1;" horiz-adv-x="1163" 
d="M70 916q-16 0 -23 16.5t-7 52.5q0 37 7 54t24 17h457q190 0 310 -52t177.5 -162t57.5 -293q0 -175 -58.5 -304t-167 -196t-259.5 -67q-150 0 -252 60.5t-153.5 178.5t-51.5 293q0 221 101 402h-162zM413 916q-108 -173 -108 -392q0 -132 32 -221.5t96.5 -134.5t161.5 -45
q96 0 164 47t104 140.5t36 226.5q0 142 -38.5 223.5t-120.5 118.5t-220 37h-107z" />
    <glyph glyph-name="uni05E2" unicode="&#x5e2;" horiz-adv-x="1073" 
d="M448 145q120 12 180 48.5t93 113.5t47 217.5t14 400.5v109q0 15 20.5 21.5t64.5 6.5q43 0 63.5 -6.5t20.5 -21.5v-107q0 -309 -28 -480t-92 -266.5t-181 -138t-326 -42.5h-274q-16 0 -22.5 16.5t-6.5 52.5q0 37 7 54.5t22 17.5h228l-179 871q-5 23 0 32t22.5 13t56.5 4
q56 0 73 -5t22 -28z" />
    <glyph glyph-name="uni05E3" unicode="&#x5e3;" horiz-adv-x="1063" 
d="M279 916l-16 -163q-9 -84 -2 -122t34 -63t97 -59l25 -13q16 -9 13.5 -27t-22.5 -57q-18 -34 -29 -46t-20 -12.5t-19 3.5l-38 19q-75 38 -115.5 68t-63 68.5t-27.5 93.5t3 144l23 250q3 27 18 41.5t41 14.5h334q120 0 197.5 -22.5t122 -72t62.5 -130t18 -202.5v-962
q0 -17 -18.5 -24t-65.5 -7t-66 7t-19 24v947q0 129 -18.5 191.5t-69 86.5t-155.5 24h-224z" />
    <glyph glyph-name="uni05E4" unicode="&#x5e4;" horiz-adv-x="1108" 
d="M141 0q-15 0 -22 16.5t-7 52.5q0 38 7 55t22 17h640q21 263 21 414q0 164 -23 234.5t-81 99t-187 28.5h-217l-13 -129q-9 -83 -1.5 -118.5t34.5 -60.5t96 -59l26 -13q11 -5 13 -16t-3.5 -27t-18.5 -40q-16 -30 -26.5 -43t-19.5 -16t-22 4l-38 19q-100 49 -143.5 91
t-56 103.5t-1.5 178.5l19 209q3 27 17.5 41.5t41.5 14.5h326q135 0 220 -25t134 -78.5t71 -144t22 -242.5q0 -103 -8 -241t-22 -265q-3 -30 -18.5 -45t-44.5 -15h-737z" />
    <glyph glyph-name="uni05E5" unicode="&#x5e5;" horiz-adv-x="890" 
d="M388 490q18 -58 27 -89q68 72 108 125.5t61.5 103t31.5 104.5t10 134v163q0 17 19.5 24t65.5 7q45 0 64.5 -7t19.5 -24v-156q0 -106 -16 -181t-53 -145.5t-101.5 -150t-168.5 -181.5q16 -89 16 -217v-333q0 -17 -19.5 -24t-64.5 -7q-46 0 -65.5 7t-19.5 24v333
q0 111 -15 203.5t-51 205.5l-196 597q-9 26 -5.5 37t23 15t63.5 4q48 0 65.5 -5.5t25.5 -30.5z" />
    <glyph glyph-name="uni05E6" unicode="&#x5e6;" horiz-adv-x="994" 
d="M845 164q15 -20 21 -37.5t6 -40.5v-25q0 -31 -7.5 -46t-24.5 -15h-779q-16 0 -22.5 17t-6.5 52q0 37 7 54.5t22 17.5h598l-619 854q-15 22 -15 35q0 17 21 24.5t67 7.5q52 0 74.5 -6t35.5 -24l339 -479l28 28q48 50 72.5 90.5t34.5 84.5t10 112v163q0 17 19.5 24t64.5 7
q46 0 65.5 -7t19.5 -24v-156q0 -96 -14.5 -153t-52 -114t-120.5 -145l-33 -36z" />
    <glyph glyph-name="uni05E7" unicode="&#x5e7;" horiz-adv-x="1099" 
d="M322 -333q0 -17 -19 -24t-66 -7t-65.5 7t-18.5 24v921q0 17 18.5 24.5t65.5 7.5t66 -7.5t19 -24.5v-921zM1011 736q0 -77 -24.5 -177.5t-69.5 -212.5l-130 -319q-8 -21 -28 -27t-73 -6q-46 0 -61 5t-15 19q0 9 7 28l137 338q43 104 64.5 190t21.5 149q0 74 -25.5 114.5
t-83.5 59.5t-158 19h-403q-17 0 -23.5 16.5t-6.5 52.5q0 37 7 54t24 17h417q146 0 239.5 -34.5t138.5 -105t45 -180.5z" />
    <glyph glyph-name="uni05E8" unicode="&#x5e8;" horiz-adv-x="912" 
d="M763 25q0 -17 -19 -24t-65 -7t-65.5 7t-19.5 24v603q0 117 -9.5 166.5t-34.5 76.5t-72.5 39t-137.5 12q-117 0 -286 -13q-16 -1 -23 13.5t-7 51.5q0 41 6.5 56t25.5 17q136 15 289 15q127 0 206.5 -21.5t126 -66.5t66 -121.5t19.5 -214.5v-613z" />
    <glyph glyph-name="uni05E9" unicode="&#x5e9;" horiz-adv-x="1420" 
d="M377 140q110 -18 219 -18q191 0 313.5 83t182.5 253.5t60 436.5v136q0 17 19 24t66 7q46 0 65 -7t19 -24v-130q0 -305 -82.5 -509t-246 -306.5t-405.5 -102.5q-71 0 -159.5 9.5t-129.5 18.5t-58.5 23.5t-21.5 42.5l-141 942q-3 17 3 26t23.5 13t52.5 4q48 0 68 -6.5
t23 -24.5l66 -452q136 -6 202 21.5t93 100.5t27 233v97q0 17 18 24t64 7q44 0 62 -7t18 -24v-95q0 -193 -45.5 -300.5t-146 -153t-273.5 -36.5z" />
    <glyph glyph-name="uni05EA" unicode="&#x5ea;" horiz-adv-x="1239" 
d="M419 308q0 -107 -27 -174.5t-83 -100.5t-148 -33h-76q-16 0 -23.5 16t-7.5 53q0 38 7.5 55t21.5 17h72q47 0 71 40t24 119v616h-158q-17 0 -24 16.5t-7 52.5q0 37 7.5 54t23.5 17h502q187 0 294.5 -44t154.5 -140t47 -278v-569q0 -17 -19 -24t-65 -7t-65.5 7t-19.5 24
v556q0 144 -28.5 211t-99.5 95.5t-211 28.5h-163v-608z" />
    <glyph glyph-name="uni05F0" unicode="&#x5f0;" horiz-adv-x="949" 
d="M322 25q0 -17 -19.5 -24t-65.5 -7t-65 7t-19 24v1006q0 17 19 24t65 7t65.5 -7t19.5 -24v-1006zM796 25q0 -17 -19.5 -24t-65.5 -7t-65 7t-19 24v1006q0 17 19 24t65 7t65.5 -7t19.5 -24v-1006z" />
    <glyph glyph-name="uni05F1" unicode="&#x5f1;" horiz-adv-x="949" 
d="M322 461q0 -17 -19.5 -24t-65.5 -7t-65 7t-19 24v570q0 17 19 24t65 7t65.5 -7t19.5 -24v-570zM796 25q0 -17 -19.5 -24t-65.5 -7t-65 7t-19 24v1006q0 17 19 24t65 7t65.5 -7t19.5 -24v-1006z" />
    <glyph glyph-name="uni05F2" unicode="&#x5f2;" horiz-adv-x="949" 
d="M322 461q0 -17 -19.5 -24t-65.5 -7t-65 7t-19 24v570q0 17 19 24t65 7t65.5 -7t19.5 -24v-570zM796 461q0 -17 -19.5 -24t-65.5 -7t-65 7t-19 24v570q0 17 19 24t65 7t65.5 -7t19.5 -24v-570z" />
    <glyph glyph-name="uni05F3" unicode="&#x5f3;" horiz-adv-x="511" 
d="M371 1218q0 -31 -3 -56.5t-10 -49t-18.5 -46t-28.5 -46.5l-137 -206q-5 -7 -11.5 -13t-16 -9.5t-22 -5t-31.5 -1.5q-17 0 -28.5 1.5t-16.5 5t-5.5 9.5t3.5 15l133 275v127q0 26 5.5 42t17.5 25t30 12t44 3q25 0 43 -3t29.5 -12t17 -25t5.5 -42z" />
    <glyph glyph-name="uni05F4" unicode="&#x5f4;" horiz-adv-x="857" 
d="M721 1219q0 -31 -3 -56.5t-9.5 -48.5t-18 -45.5t-27.5 -46.5l-136 -205q-4 -8 -10.5 -13.5t-15.5 -9t-21 -5.5t-30 -2q-16 0 -26.5 1.5t-16 5.5t-5.5 10t3 15l132 273v127q0 26 5 42t16.5 24.5t29 11.5t42.5 3q23 0 40.5 -3t28.5 -11.5t16.5 -24.5t5.5 -42zM363 1219
q0 -31 -3 -56.5t-9.5 -48.5t-18 -45.5t-27.5 -46.5l-136 -205q-4 -8 -10.5 -13.5t-15.5 -9t-21 -5.5t-30 -2q-16 0 -27 1.5t-16 5.5t-5.5 10t3.5 15l132 273v127q0 26 5 42t16.5 24.5t29 11.5t42.5 3q24 0 41 -3t28 -11.5t16.5 -24.5t5.5 -42z" />
    <glyph glyph-name="uni2009" horiz-adv-x="409" 
d="M0 0z" />
    <glyph glyph-name="uni200A" horiz-adv-x="256" 
d="M0 0z" />
    <glyph glyph-name="quoteright" horiz-adv-x="511" 
d="M371 1318q0 -31 -3 -56.5t-10 -49t-18.5 -46t-28.5 -46.5l-137 -206q-5 -7 -11.5 -13t-16 -9.5t-22 -5t-31.5 -1.5q-17 0 -28.5 1.5t-16.5 5t-5.5 9.5t3.5 15l133 275v127q0 26 5.5 42t17.5 25t30 12t44 3q25 0 43 -3t29.5 -12t17 -25t5.5 -42z" />
    <glyph glyph-name="quotedblright" horiz-adv-x="857" 
d="M721 1319q0 -31 -3 -56.5t-9.5 -48.5t-18 -45.5t-27.5 -46.5l-136 -205q-4 -8 -10.5 -13.5t-15.5 -9t-21 -5.5t-30 -2q-16 0 -26.5 1.5t-16 5.5t-5.5 10t3 15l132 273v127q0 26 5 42t16.5 24.5t29 11.5t42.5 3q23 0 40.5 -3t28.5 -11.5t16.5 -24.5t5.5 -42zM363 1319
q0 -31 -3 -56.5t-9.5 -48.5t-18 -45.5t-27.5 -46.5l-136 -205q-4 -8 -10.5 -13.5t-15.5 -9t-21 -5.5t-30 -2q-16 0 -27 1.5t-16 5.5t-5.5 10t3.5 15l132 273v127q0 26 5 42t16.5 24.5t29 11.5t42.5 3q24 0 41 -3t28 -11.5t16.5 -24.5t5.5 -42z" />
    <glyph glyph-name="uni20AA" unicode="&#x20aa;" horiz-adv-x="1525" 
d="M172 1033q0 14 16.5 21.5t63.5 7.5h379q36 0 73.5 -3.5t73.5 -12t68.5 -22t58.5 -32.5q52 -37 81 -104q30 -65 30 -188v-384q0 -13 -17 -20.5t-69 -7.5q-48 0 -66 7.5t-18 20.5v370q0 37 -3 65t-9 49.5t-16 37.5t-23 30q-27 28 -72 42t-112 14h-269v-902q0 -13 -19 -20.5
t-71 -7.5q-47 0 -63.5 7.5t-16.5 20.5v1011zM1353 29q0 -14 -16.5 -21.5t-63.5 -7.5h-379q-36 0 -73.5 3.5t-73.5 12t-69 21.5t-58 33q-52 37 -81 104q-30 64 -30 188v384q0 6 3.5 11.5t13 9t26.5 5.5t43 2q48 0 66 -7.5t18 -20.5v-370q0 -37 3 -65t9 -49.5t15.5 -37.5
t23.5 -30q27 -28 72 -42t112 -14h269v902q0 13 19 20.5t71 7.5q47 0 63.5 -7.5t16.5 -20.5v-1011z" />
    <glyph glyph-name="uni25CC" unicode="&#x25cc;" horiz-adv-x="1217" 
d="M980 918q0 -50 -48 -50q-52 0 -52 50t52 50q48 0 48 -50zM832 1016q0 -49 -48 -49q-52 0 -52 49q0 51 52 51q48 0 48 -51zM1079 770q0 -51 -51 -51q-49 0 -49 51q0 49 51 49q49 0 49 -49zM1115 596q0 -50 -48 -50q-52 0 -52 50t52 50q48 0 48 -50zM658 1053
q0 -51 -50 -51t-50 51q0 49 50 49t50 -49zM485 1016q0 -49 -51 -49q-49 0 -49 49q0 51 49 51q51 0 51 -51zM1079 422q0 -49 -51 -49q-49 0 -49 49q0 51 49 51q51 0 51 -51zM337 918q0 -50 -50 -50t-50 47q0 53 50 53t50 -50zM980 272q0 -49 -48 -49q-52 0 -52 49q0 51 52 51
q48 0 48 -51zM832 174q0 -48 -48 -48q-52 0 -52 48q0 52 52 52q48 0 48 -52zM238 770q0 -51 -48 -51q-52 0 -52 51q0 49 50 49t50 -49zM202 596q1 -50 -48 -50q-52 0 -52 50t52 50q49 0 48 -50zM658 141q0 -51 -50 -51t-50 51q0 49 50 49t50 -49zM238 422q0 -49 -50 -49
t-50 49q0 51 50 51t50 -51zM485 178q0 -52 -51 -52q-49 0 -49 48q0 52 49 52q51 0 51 -48zM337 272q0 -49 -50 -49t-50 49q0 51 50 51t50 -51z" />
    <glyph glyph-name="uniFB1D" unicode="&#xfb1d;" horiz-adv-x="474" 
d="M322 461q0 -17 -19.5 -24t-65.5 -7t-65 7t-19 24v570q0 17 19 24t65 7t65.5 -7t19.5 -24v-570zM165 210q0 45 16.5 60t57.5 15q39 0 55 -14.5t16 -59.5t-16.5 -60.5t-56.5 -15.5t-56 15t-16 60z" />
    <glyph glyph-name="uniFB1E" unicode="&#xfb1e;" 
d="M133 1478q0 26 58 26q59 0 59 -26q0 -66 -15.5 -117t-47 -85.5t-79.5 -52.5t-111 -18q-64 0 -111 17.5t-77.5 52.5t-44.5 85.5t-14 117.5q0 26 59 26q58 0 58 -26q0 -86 34.5 -125.5t98.5 -39.5t98.5 39.5t34.5 125.5z" />
    <glyph glyph-name="uniFB1F" unicode="&#xfb1f;" horiz-adv-x="949" 
d="M322 461q0 -17 -19.5 -24t-65.5 -7t-65 7t-19 24v570q0 17 19 24t65 7t65.5 -7t19.5 -24v-570zM796 461q0 -17 -19.5 -24t-65.5 -7t-65 7t-19 24v570q0 17 19 24t65 7t65.5 -7t19.5 -24v-570zM648 311q17 0 25 -13t8 -44q0 -30 -8 -43t-25 -13h-347q-16 0 -24.5 13
t-8.5 43q0 31 8.5 44t24.5 13h347z" />
    <glyph glyph-name="uniFB20" unicode="&#xfb20;" horiz-adv-x="1073" 
d="M448 145q120 12 180 48.5t93 113.5t47 217.5t14 400.5v109q0 15 20.5 21.5t64.5 6.5q43 0 63.5 -6.5t20.5 -21.5v-107q0 -309 -28 -480t-92 -266.5t-181 -138t-326 -42.5h-274q-16 0 -22.5 16.5t-6.5 52.5q0 37 7 54.5t22 17.5h228l-179 871q-5 23 0 32t22.5 13t56.5 4
q56 0 73 -5t22 -28z" />
    <glyph glyph-name="uniFB21" unicode="&#xfb21;" horiz-adv-x="1399" 
d="M1281 890q0 -72 -11.5 -128.5t-36.5 -107t-66.5 -101.5t-108.5 -111l-77 -72l306 -309q14 -14 20 -23t6 -17q0 -14 -20.5 -20.5t-64.5 -6.5q-48 0 -73 2t-39.5 8t-29.5 21l-607 618l-39 -40q-73 -73 -100 -115.5t-37.5 -91.5t-10.5 -156v-215q0 -17 -19 -24t-65 -7
q-47 0 -66 7t-19 24v210q0 129 16.5 198t59.5 131t142 157l31 30l-242 245q-13 13 -19 22.5t-6 16.5q0 15 23 21t74 6q54 0 79.5 -6t42.5 -24l549 -553l90 84q58 55 89.5 101.5t45.5 98.5t14 122v146q0 17 19 24t66 7q46 0 65 -7t19 -24v-141z" />
    <glyph glyph-name="uniFB22" unicode="&#xfb22;" horiz-adv-x="1211" 
d="M1186 986q0 -36 -6.5 -53t-22.5 -17h-129q-35 -170 -35 -304v-587q0 -17 -19.5 -24t-65.5 -7q-45 0 -64.5 7t-19.5 24v583q0 130 38 308h-809q-15 0 -22 17t-7 53t7 53t22 17h1104q16 0 22.5 -17t6.5 -53z" />
    <glyph glyph-name="uniFB23" unicode="&#xfb23;" horiz-adv-x="1467" 
d="M1318 25q0 -18 -19.5 -24.5t-63.5 -6.5q-46 0 -66 7t-20 24v556q0 111 -15.5 172.5t-51.5 96.5t-101 50.5t-174 15.5h-637q-17 0 -23.5 16.5t-6.5 52.5q0 37 7 54t24 17h649q145 0 240 -24.5t151.5 -76.5t81.5 -136.5t25 -224.5v-569zM322 25q0 -17 -19.5 -24t-65.5 -7
t-65 7t-19 24v563q0 17 19 24.5t65 7.5t65.5 -7.5t19.5 -24.5v-563z" />
    <glyph glyph-name="uniFB24" unicode="&#xfb24;" horiz-adv-x="1274" 
d="M1137 566q0 -213 -30 -506q-3 -30 -19 -45t-44 -15h-969q-16 0 -22.5 17t-6.5 52q0 38 7 55t22 17h872q21 269 21 414q0 133 -18 199.5t-58.5 102t-115.5 50.5t-213 15q-210 0 -447 -17q-17 -1 -23.5 14t-6.5 51q0 40 6 56t26 18q204 18 453 18q176 0 281 -24
t166.5 -76.5t90 -145.5t28.5 -250z" />
    <glyph glyph-name="uniFB25" unicode="&#xfb25;" horiz-adv-x="1188" 
d="M1102 790q0 -70 -31.5 -159.5t-99.5 -213.5l-214 -390q-10 -19 -35 -26t-75 -7q-43 0 -59 5.5t-16 21.5q0 9 8 25l217 390q70 127 101.5 206.5t31.5 136.5q0 54 -25 83t-82 41.5t-162 12.5h-573q-29 0 -44.5 16t-15.5 44v386q0 17 18.5 24t65.5 7t66 -7t19 -24v-306h484
q115 0 194 -15t129 -46.5t74 -82t24 -122.5z" />
    <glyph glyph-name="uniFB26" unicode="&#xfb26;" horiz-adv-x="1498" 
d="M1181 581q0 114 -18.5 178.5t-61.5 99.5t-124 49t-268 14q-177 0 -387 -6v-775h859v440zM213 0q-29 0 -44.5 16t-15.5 44v925q0 30 13.5 46t40.5 18q231 13 505 13q226 0 337 -23t175.5 -76.5t95 -143t30.5 -225.5v-534q0 -28 -16 -44t-44 -16h-1077z" />
    <glyph glyph-name="uniFB27" unicode="&#xfb27;" horiz-adv-x="1212" 
d="M1063 25q0 -17 -19.5 -24t-64.5 -7t-65 7t-20 24v603q0 117 -10.5 169t-38 78t-84 36.5t-218.5 10.5q-223 0 -489 -13q-16 -1 -23 13.5t-7 51.5q0 41 7 56.5t25 16.5q227 15 503 15q195 0 281.5 -19.5t134 -65t68 -126.5t20.5 -213v-613z" />
    <glyph glyph-name="uniFB28" unicode="&#xfb28;" horiz-adv-x="1539" 
d="M419 916v-608q0 -107 -26.5 -174.5t-83 -100.5t-148.5 -33h-76q-17 0 -24 16.5t-7 52.5q0 38 7.5 55t21.5 17h72q47 0 71 40t24 119v616h-158q-17 0 -24 16.5t-7 52.5q0 37 7.5 54t23.5 17h776q206 0 316 -43t158 -140t48 -279v-569q0 -18 -19.5 -24.5t-64.5 -6.5t-65 7
t-20 24v556q0 140 -29.5 209.5t-100.5 97.5t-237 28h-435z" />
    <glyph glyph-name="uniFB29" unicode="&#xfb29;" horiz-adv-x="1020" 
d="M950 426q0 -34 -10 -53t-28 -19h-804q-18 0 -28 19t-10 53t10 52.5t27 18.5h329v364q0 18 18 26.5t56 8.5t56 -8.5t18 -26.5v-364h329q18 0 27.5 -18.5t9.5 -52.5z" />
    <glyph glyph-name="uniFB2A" unicode="&#xfb2a;" horiz-adv-x="1420" 
d="M377 140q110 -18 219 -18q191 0 313.5 83t182.5 253.5t60 436.5v136q0 17 19 24t66 7q46 0 65 -7t19 -24v-130q0 -305 -82.5 -509t-246 -306.5t-405.5 -102.5q-71 0 -159.5 9.5t-129.5 18.5t-58.5 23.5t-21.5 42.5l-141 942q-3 17 3 26t23.5 13t52.5 4q48 0 68 -6.5
t23 -24.5l66 -452q136 -6 202 21.5t93 100.5t27 233v97q0 17 18 24t64 7q44 0 62 -7t18 -24v-95q0 -193 -45.5 -300.5t-146 -153t-273.5 -36.5zM1302 1283q0 -45 -16.5 -60.5t-57.5 -15.5q-40 0 -56 15t-16 59q0 45 16.5 60.5t57.5 15.5q40 0 56 -15t16 -59z" />
    <glyph glyph-name="uniFB2B" unicode="&#xfb2b;" horiz-adv-x="1420" 
d="M377 140q110 -18 219 -18q191 0 313.5 83t182.5 253.5t60 436.5v136q0 17 19 24t66 7q46 0 65 -7t19 -24v-130q0 -305 -82.5 -509t-246 -306.5t-405.5 -102.5q-71 0 -159.5 9.5t-129.5 18.5t-58.5 23.5t-21.5 42.5l-141 942q-3 17 3 26t23.5 13t52.5 4q48 0 68 -6.5
t23 -24.5l66 -452q136 -6 202 21.5t93 100.5t27 233v97q0 17 18 24t64 7q44 0 62 -7t18 -24v-95q0 -193 -45.5 -300.5t-146 -153t-273.5 -36.5zM233 1283q0 -45 -16.5 -60.5t-57.5 -15.5q-40 0 -56 15t-16 59q0 45 16.5 60.5t57.5 15.5q40 0 56 -15t16 -59z" />
    <glyph glyph-name="uniFB2C" unicode="&#xfb2c;" horiz-adv-x="1425" 
d="M377 140q110 -18 224 -18q198 0 318.5 81t179.5 251t59 441v136q0 17 19 24t65 7q47 0 66 -7t19 -24v-130q0 -312 -81 -515t-244.5 -303t-414.5 -100q-71 0 -159.5 9.5t-129.5 18.5t-58.5 23.5t-21.5 42.5l-141 942q-3 17 3 26t23.5 13t52.5 4q47 0 67.5 -6.5t23.5 -24.5
l66 -447q134 -6 200.5 22t94 100.5t27.5 245.5v79q0 17 18 24t64 7q44 0 62 -7t18 -24v-75q0 -203 -47 -311t-149 -155t-270 -39zM809 492q0 45 16.5 60.5t57.5 15.5q40 0 56 -15t16 -59q0 -45 -16.5 -60.5t-57.5 -15.5q-40 0 -56 15t-16 59zM1307 1283q0 -45 -16.5 -60.5
t-57.5 -15.5q-40 0 -56 15t-16 59q0 45 16.5 60.5t57.5 15.5q40 0 56 -15t16 -59z" />
    <glyph glyph-name="uniFB2D" unicode="&#xfb2d;" horiz-adv-x="1425" 
d="M377 140q110 -18 224 -18q198 0 318.5 81t179.5 251t59 441v136q0 17 19 24t65 7q47 0 66 -7t19 -24v-130q0 -312 -81 -515t-244.5 -303t-414.5 -100q-71 0 -159.5 9.5t-129.5 18.5t-58.5 23.5t-21.5 42.5l-141 942q-3 17 3 26t23.5 13t52.5 4q47 0 67.5 -6.5t23.5 -24.5
l66 -447q134 -6 200.5 22t94 100.5t27.5 245.5v79q0 17 18 24t64 7q44 0 62 -7t18 -24v-75q0 -203 -47 -311t-149 -155t-270 -39zM809 492q0 45 16.5 60.5t57.5 15.5q40 0 56 -15t16 -59q0 -45 -16.5 -60.5t-57.5 -15.5q-40 0 -56 15t-16 59zM233 1283q0 -45 -16.5 -60.5
t-57.5 -15.5q-40 0 -56 15t-16 59q0 45 16.5 60.5t57.5 15.5q40 0 56 -15t16 -59z" />
    <glyph glyph-name="uniFB2E" unicode="&#xfb2e;" horiz-adv-x="1099" 
d="M981 857q0 -78 -9.5 -128.5t-32.5 -95t-64.5 -96.5t-126.5 -138l240 -337q12 -16 16.5 -26t4.5 -17q0 -14 -19.5 -19.5t-64.5 -5.5q-36 0 -58 2.5t-35 8.5t-23 20l-419 595q-48 -65 -66 -106.5t-25 -95t-7 -178.5v-215q0 -17 -19.5 -24t-64.5 -7q-46 0 -65.5 7t-19.5 24
v210q0 143 14 215.5t48.5 139t111.5 163.5l-172 243q-11 15 -15 24.5t-4 16.5q0 14 19.5 19.5t65.5 5.5q50 0 72.5 -5.5t35.5 -24.5l359 -506q75 78 103 120t39.5 88.5t11.5 117.5v179q0 17 19.5 24t65.5 7q45 0 64.5 -7t19.5 -24v-174zM722 -153q17 0 25 -13t8 -44
q0 -30 -8 -43t-25 -13h-347q-16 0 -24.5 13t-8.5 43q0 31 8.5 44t24.5 13h347z" />
    <glyph glyph-name="uniFB2F" unicode="&#xfb2f;" horiz-adv-x="1099" 
d="M981 857q0 -78 -9.5 -128.5t-32.5 -95t-64.5 -96.5t-126.5 -138l240 -337q12 -16 16.5 -26t4.5 -17q0 -14 -19.5 -19.5t-64.5 -5.5q-36 0 -58 2.5t-35 8.5t-23 20l-419 595q-48 -65 -66 -106.5t-25 -95t-7 -178.5v-215q0 -17 -19.5 -24t-64.5 -7q-46 0 -65.5 7t-19.5 24
v210q0 143 14 215.5t48.5 139t111.5 163.5l-172 243q-11 15 -15 24.5t-4 16.5q0 14 19.5 19.5t65.5 5.5q50 0 72.5 -5.5t35.5 -24.5l359 -506q75 78 103 120t39.5 88.5t11.5 117.5v179q0 17 19.5 24t65.5 7q45 0 64.5 -7t19.5 -24v-174zM606 -261v-223q0 -16 -13 -24.5
t-44 -8.5q-32 0 -44.5 8.5t-12.5 24.5v223h-117q-16 0 -24.5 12t-8.5 41q0 31 8.5 43t24.5 12h348q16 0 24 -12t8 -42t-8 -42t-24 -12h-117z" />
    <glyph glyph-name="uniFB30" unicode="&#xfb30;" horiz-adv-x="1131" 
d="M1013 857q0 -77 -11 -129t-34.5 -96.5t-66 -96.5t-128.5 -138l246 -336q12 -15 17 -24.5t5 -16.5q0 -14 -19.5 -20t-64.5 -6q-37 0 -59 2.5t-35 8.5t-24 20l-441 607q-53 -70 -73 -112t-28 -97t-8 -183v-215q0 -17 -19.5 -24t-63.5 -7q-45 0 -64 7t-19 24v210
q0 143 14 215.5t49 138.5t117 166l-177 241q-12 15 -16 24.5t-4 15.5q0 14 20 20t65 6q50 0 74.5 -5.5t38.5 -24.5l375 -515q78 80 108 123t43.5 90.5t13.5 121.5v179q0 17 19 24t65 7t65.5 -7t19.5 -24v-174zM421 146q0 45 16.5 60.5t57.5 15.5q40 0 56 -15t16 -59
q0 -45 -16.5 -60.5t-57.5 -15.5q-40 0 -56 15t-16 59z" />
    <glyph glyph-name="uniFB31" unicode="&#xfb31;" horiz-adv-x="1011" 
d="M987 69q0 -36 -7 -52.5t-22 -16.5h-886q-15 0 -22 16.5t-7 52.5q0 38 7 55t22 17h582q-34 146 -34 301v143q0 160 -11 209t-39 76t-80.5 39.5t-142.5 12.5q-52 0 -111.5 -4t-120.5 -13q-16 -2 -23 13.5t-7 51.5q0 41 6.5 55.5t24.5 17.5q57 10 118.5 14.5t117.5 4.5
q131 0 215 -22.5t132 -70.5t69 -128.5t21 -242.5v-158q0 -153 32 -299h137q14 0 21.5 -17t7.5 -55zM265 531q0 45 16.5 60.5t57.5 15.5q40 0 56 -15t16 -59q0 -45 -16.5 -60.5t-57.5 -15.5q-40 0 -56 15t-16 59z" />
    <glyph glyph-name="uniFB32" unicode="&#xfb32;" horiz-adv-x="755" 
d="M680 44q4 -22 -2.5 -31.5t-23 -14t-56.5 -4.5q-35 0 -51.5 2.5t-24.5 10t-11 23.5l-36 230l-372 -256q-29 -21 -46 -21t-24.5 21.5t-7.5 64.5q0 50 8 67t34 34l382 252l-48 301q-15 90 -31.5 127t-45.5 52t-85 15h-107q-15 0 -22 16.5t-7 53.5q0 36 7 52.5t22 16.5h126
q100 0 160.5 -29.5t96 -95t53.5 -182.5zM146 573q0 45 16.5 60.5t57.5 15.5q40 0 56 -15t16 -59q0 -45 -16.5 -60.5t-57.5 -15.5q-40 0 -56 15t-16 59z" />
    <glyph glyph-name="uniFB33" unicode="&#xfb33;" horiz-adv-x="911" 
d="M886 986q0 -36 -6.5 -53t-22.5 -17h-129q-35 -170 -35 -304v-587q0 -17 -19.5 -24t-65.5 -7q-45 0 -64.5 7t-19.5 24v583q0 130 38 308h-509q-15 0 -22 17t-7 53t7 53t22 17h804q16 0 22.5 -17t6.5 -53zM214 531q0 45 16.5 60.5t57.5 15.5q40 0 56 -15t16 -59
q0 -45 -16.5 -60.5t-57.5 -15.5q-40 0 -56 15t-16 59z" />
    <glyph glyph-name="uniFB34" unicode="&#xfb34;" horiz-adv-x="1178" 
d="M1030 25q0 -18 -19.5 -24.5t-63.5 -6.5q-46 0 -66 7t-20 24v556q0 114 -16 175t-53 95.5t-101.5 49.5t-171.5 15h-349q-17 0 -23.5 16.5t-6.5 52.5q0 37 7 54t24 17h361q142 0 237 -24t152 -75t83 -136t26 -227v-569zM322 25q0 -17 -19.5 -24t-65.5 -7t-65 7t-19 24v563
q0 17 19 24.5t65 7.5t65.5 -7.5t19.5 -24.5v-563zM508 487q0 45 16.5 60.5t57.5 15.5q40 0 56 -15t16 -59q0 -45 -16.5 -60.5t-57.5 -15.5q-40 0 -56 15t-16 59z" />
    <glyph glyph-name="uniFB35" unicode="&#xfb35;" horiz-adv-x="578" 
d="M426 25q0 -17 -19.5 -24t-65.5 -7t-65 7t-19 24v1006q0 17 19 24t65 7t65.5 -7t19.5 -24v-1006zM30 531q0 45 16.5 60.5t57.5 15.5q40 0 56 -15t16 -59q0 -45 -16.5 -60.5t-57.5 -15.5q-40 0 -56 15t-16 59z" />
    <glyph glyph-name="uniFB36" unicode="&#xfb36;" horiz-adv-x="665" 
d="M426 804q-9 -58 -9 -104q0 -52 10 -143l60 -530q3 -18 -16.5 -25.5t-67.5 -7.5q-46 0 -64.5 7t-21.5 26l-60 530q-9 78 -9 136q0 50 9 111l18 112h-147q-17 0 -25 17.5t-8 51.5q0 36 8 53.5t25 17.5h481q17 0 25 -17.5t8 -53.5q0 -34 -8 -51.5t-25 -17.5h-165zM30 531
q0 45 16.5 60.5t57.5 15.5q40 0 56 -15t16 -59q0 -45 -16.5 -60.5t-57.5 -15.5q-40 0 -56 15t-16 59z" />
    <glyph glyph-name="uniFB38" unicode="&#xfb38;" horiz-adv-x="1143" 
d="M1053 671q0 -210 -73.5 -366t-211.5 -239t-327 -83q-98 0 -184 14q-32 5 -48 22.5t-20 50.5l-80 946q-2 29 16 37t68 8t66.5 -5.5t18.5 -27.5l76 -896q42 -8 100 -8q134 0 229.5 62t145.5 182.5t50 288.5v8q0 92 -20 146t-60.5 79.5t-104.5 25.5h-108q-16 0 -22.5 17
t-6.5 53t6.5 53t22.5 17h122q116 0 192 -41t114.5 -125.5t38.5 -210.5v-8zM505 543q0 45 16.5 60.5t57.5 15.5q40 0 56 -15t16 -59q0 -45 -16.5 -60.5t-57.5 -15.5q-40 0 -56 15t-16 59z" />
    <glyph glyph-name="uniFB39" unicode="&#xfb39;" horiz-adv-x="578" 
d="M426 461q0 -17 -19.5 -24t-65.5 -7t-65 7t-19 24v570q0 17 19 24t65 7t65.5 -7t19.5 -24v-570zM30 531q0 45 16.5 60.5t57.5 15.5q40 0 56 -15t16 -59q0 -45 -16.5 -60.5t-57.5 -15.5q-40 0 -56 15t-16 59z" />
    <glyph glyph-name="uniFB3A" unicode="&#xfb3a;" horiz-adv-x="912" 
d="M763 -333q0 -17 -18.5 -24t-65.5 -7t-66 7t-19 24v961q0 148 -18.5 200t-69.5 73t-166 21q-59 0 -131 -3t-155 -10q-16 -1 -23 13.5t-7 51.5q0 41 6.5 56t25.5 17q136 15 289 15q165 0 254.5 -37.5t126.5 -122t37 -264.5v-971zM236 531q0 45 16.5 60.5t57.5 15.5
q40 0 56 -15t16 -59q0 -45 -16.5 -60.5t-57.5 -15.5q-40 0 -56 15t-16 59z" />
    <glyph glyph-name="uniFB3B" unicode="&#xfb3b;" horiz-adv-x="974" 
d="M837 566q0 -213 -30 -506q-3 -30 -19 -45t-44 -15h-669q-16 0 -22.5 17t-6.5 52q0 38 7 55t22 17h572q21 269 21 414q0 169 -24.5 239.5t-85.5 99t-195 28.5q-105 0 -247 -17q-17 -1 -23.5 14t-6.5 51q0 41 6.5 56t25.5 18q124 18 253 18q186 0 284 -43t140 -144.5
t42 -308.5zM276 531q0 45 16.5 60.5t57.5 15.5q40 0 56 -15t16 -59q0 -45 -16.5 -60.5t-57.5 -15.5q-40 0 -56 15t-16 59z" />
    <glyph glyph-name="uniFB3C" unicode="&#xfb3c;" horiz-adv-x="888" 
d="M802 790q0 -70 -31.5 -159.5t-99.5 -213.5l-214 -390q-10 -19 -35 -26t-75 -7q-43 0 -59 5.5t-16 21.5q0 9 8 25l217 390q70 127 101.5 206.5t31.5 136.5q0 50 -22 79t-70.5 43.5t-128.5 14.5h-321q-29 0 -44.5 16t-15.5 44v386q0 17 18.5 24t65.5 7t66 -7t19 -24v-306
h231q98 0 169 -16.5t116.5 -49.5t67 -82.5t21.5 -117.5zM184 567q0 45 16.5 60.5t57.5 15.5q40 0 56 -15t16 -59q0 -45 -16.5 -60.5t-57.5 -15.5q-40 0 -56 15t-16 59z" />
    <glyph glyph-name="uniFB3E" unicode="&#xfb3e;" horiz-adv-x="1197" 
d="M347 881q95 97 188 145.5t182 48.5q121 0 196.5 -56t110.5 -171.5t35 -300.5q0 -113 -6 -241t-17 -246q-2 -30 -18 -45t-44 -15h-451q-15 0 -22.5 16.5t-7.5 53.5t7.5 54t21.5 17h353q15 224 15 393q0 154 -19.5 238.5t-63 122t-118.5 37.5q-70 0 -145 -47.5t-167 -147.5
l-122 -712q-2 -17 -22.5 -24t-66.5 -7q-45 0 -63.5 6.5t-16.5 24.5l117 684q6 36 1 63t-25 73l-68 151q-10 23 -11 35t6.5 18.5t25 9.5t51.5 3q50 0 68.5 -5t27.5 -25zM543 531q0 45 16.5 60.5t57.5 15.5q40 0 56 -15t16 -59q0 -45 -16.5 -60.5t-57.5 -15.5q-40 0 -56 15
t-16 59z" />
    <glyph glyph-name="uniFB40" unicode="&#xfb40;" horiz-adv-x="747" 
d="M598 60q0 -28 -15.5 -44t-44.5 -16h-466q-14 0 -21.5 16.5t-7.5 53.5t7.5 54t21.5 17h357v488q0 138 -14 194.5t-50.5 77.5t-125.5 21q-51 0 -134 -11q-12 -2 -17 14t-5 50q0 40 5.5 55t19.5 18q81 14 156 14q102 0 165.5 -21t99.5 -66.5t52.5 -123t16.5 -208.5v-583z
M151 531q0 45 16.5 60.5t57.5 15.5q40 0 56 -15t16 -59q0 -45 -16.5 -60.5t-57.5 -15.5q-40 0 -56 15t-16 59z" />
    <glyph glyph-name="uniFB41" unicode="&#xfb41;" horiz-adv-x="1163" 
d="M70 916q-16 0 -23 16.5t-7 52.5q0 37 7 54t24 17h457q190 0 310 -52t177.5 -162t57.5 -293q0 -175 -58.5 -304t-167 -196t-259.5 -67q-150 0 -252 60.5t-153.5 178.5t-51.5 293q0 221 101 402h-162zM413 916q-108 -173 -108 -392q0 -132 32 -221.5t96.5 -134.5t161.5 -45
q96 0 164 47t104 140.5t36 226.5q0 142 -38.5 223.5t-120.5 118.5t-220 37h-107zM525 530q0 45 16.5 60.5t57.5 15.5q40 0 56 -15t16 -59q0 -45 -16.5 -60.5t-57.5 -15.5q-40 0 -56 15t-16 59z" />
    <glyph glyph-name="uniFB43" unicode="&#xfb43;" horiz-adv-x="1081" 
d="M279 916l-16 -163q-9 -84 -2 -122t34 -63t97 -59l25 -13q16 -9 13.5 -27t-22.5 -57q-18 -34 -29 -46t-20 -12.5t-19 3.5l-38 19q-75 38 -115.5 68t-63 68.5t-27.5 93.5t3 144l23 250q3 27 18 41.5t41 14.5h351q121 0 198 -22.5t121.5 -72t63 -130t18.5 -202.5v-962
q0 -17 -19 -24t-66 -7q-46 0 -65 7t-19 24v947q0 129 -19 191.5t-69.5 86.5t-155.5 24h-241zM515 361q0 45 16.5 60.5t57.5 15.5q40 0 56 -15t16 -59q0 -45 -16.5 -60.5t-57.5 -15.5q-40 0 -56 15t-16 59z" />
    <glyph glyph-name="uniFB44" unicode="&#xfb44;" horiz-adv-x="1124" 
d="M141 0q-15 0 -22 16.5t-7 52.5q0 38 7 55t22 17h656q20 263 20 414q0 163 -23 234t-83.5 99.5t-194.5 28.5h-222l-13 -129q-9 -83 -1.5 -118.5t34.5 -60.5t97 -59l25 -13q11 -5 13 -16t-3.5 -27t-18.5 -40q-16 -30 -26.5 -43t-19.5 -16t-22 4l-38 19q-100 49 -143.5 91
t-56 103.5t-1.5 178.5l19 209q3 27 17.5 41.5t41.5 14.5h331q139 0 225.5 -25t137 -78.5t72.5 -144t22 -242.5q0 -103 -8 -241t-21 -265q-3 -30 -19 -45t-44 -15h-753zM548 458q0 45 16.5 60.5t57.5 15.5q40 0 56 -15t16 -59q0 -45 -16.5 -60.5t-57.5 -15.5q-40 0 -56 15
t-16 59z" />
    <glyph glyph-name="uniFB46" unicode="&#xfb46;" horiz-adv-x="994" 
d="M845 164q15 -20 21 -37.5t6 -40.5v-25q0 -31 -7.5 -46t-24.5 -15h-779q-16 0 -22.5 17t-6.5 52q0 37 7 54.5t22 17.5h598l-619 854q-15 22 -15 35q0 17 21 24.5t67 7.5q52 0 74.5 -6t35.5 -24l339 -479l28 28q48 50 72.5 90.5t34.5 84.5t10 112v163q0 17 19.5 24t64.5 7
q46 0 65.5 -7t19.5 -24v-156q0 -96 -14.5 -153t-52 -114t-120.5 -145l-33 -36zM94 411q0 45 16.5 60.5t57.5 15.5q40 0 56 -15t16 -59q0 -45 -16.5 -60.5t-57.5 -15.5q-40 0 -56 15t-16 59z" />
    <glyph glyph-name="uniFB47" unicode="&#xfb47;" horiz-adv-x="1105" 
d="M322 -333q0 -17 -19 -24t-66 -7t-65.5 7t-18.5 24v921q0 17 18.5 24.5t65.5 7.5t66 -7.5t19 -24.5v-921zM1016 736q0 -77 -24.5 -177.5t-69.5 -212.5l-130 -319q-8 -21 -28 -27t-73 -6q-45 0 -60.5 5t-15.5 19q0 9 8 28l136 338q43 104 64.5 190t21.5 149
q0 74 -25.5 114.5t-83.5 59.5t-158 19h-408q-17 0 -23.5 16.5t-6.5 52.5q0 37 7 54t24 17h422q147 0 240.5 -34.5t138 -105t44.5 -180.5zM487 625q0 45 16.5 60.5t57.5 15.5q40 0 56 -15t16 -59q0 -45 -16.5 -60.5t-57.5 -15.5q-40 0 -56 15t-16 59z" />
    <glyph glyph-name="uniFB48" unicode="&#xfb48;" horiz-adv-x="912" 
d="M763 25q0 -17 -19 -24t-65 -7t-65.5 7t-19.5 24v603q0 117 -9.5 166.5t-34.5 76.5t-72.5 39t-137.5 12q-117 0 -286 -13q-16 -1 -23 13.5t-7 51.5q0 41 6.5 56t25.5 17q136 15 289 15q127 0 206.5 -21.5t126 -66.5t66 -121.5t19.5 -214.5v-613zM247 531q0 45 16.5 60.5
t57.5 15.5q40 0 56 -15t16 -59q0 -45 -16.5 -60.5t-57.5 -15.5q-40 0 -56 15t-16 59z" />
    <glyph glyph-name="uniFB49" unicode="&#xfb49;" horiz-adv-x="1425" 
d="M377 140q110 -18 224 -18q198 0 318.5 81t179.5 251t59 441v136q0 17 19 24t65 7q47 0 66 -7t19 -24v-130q0 -312 -81 -515t-244.5 -303t-414.5 -100q-71 0 -159.5 9.5t-129.5 18.5t-58.5 23.5t-21.5 42.5l-141 942q-3 17 3 26t23.5 13t52.5 4q47 0 67.5 -6.5t23.5 -24.5
l66 -447q134 -6 200.5 22t94 100.5t27.5 245.5v79q0 17 18 24t64 7q44 0 62 -7t18 -24v-75q0 -203 -47 -311t-149 -155t-270 -39zM809 492q0 45 16.5 60.5t57.5 15.5q40 0 56 -15t16 -59q0 -45 -16.5 -60.5t-57.5 -15.5q-40 0 -56 15t-16 59z" />
    <glyph glyph-name="uniFB4A" unicode="&#xfb4a;" horiz-adv-x="1253" 
d="M419 308q0 -107 -27 -174.5t-83 -100.5t-148 -33h-76q-16 0 -23.5 16t-7.5 53q0 38 7.5 55t21.5 17h72q47 0 71 40t24 119v616h-158q-17 0 -24 16.5t-7 52.5q0 37 7.5 54t23.5 17h514q187 0 295 -44t155.5 -140t47.5 -278v-569q0 -17 -19 -24t-65 -7t-65.5 7t-19.5 24
v556q0 144 -29 211t-100 95.5t-212 28.5h-175v-608zM602 520q0 45 16.5 60.5t57.5 15.5q40 0 56 -15t16 -59q0 -45 -16.5 -60.5t-57.5 -15.5q-40 0 -56 15t-16 59z" />
    <glyph glyph-name="uniFB4B" unicode="&#xfb4b;" horiz-adv-x="474" 
d="M322 25q0 -17 -19.5 -24t-65.5 -7t-65 7t-19 24v1006q0 17 19 24t65 7t65.5 -7t19.5 -24v-1006zM310 1283q0 -45 -16.5 -60.5t-57.5 -15.5q-40 0 -56 15t-16 59q0 45 16.5 60.5t57.5 15.5q40 0 56 -15t16 -59z" />
    <glyph glyph-name="uniFB4C" unicode="&#xfb4c;" horiz-adv-x="1011" 
d="M987 69q0 -36 -7 -52.5t-22 -16.5h-886q-15 0 -22 16.5t-7 52.5q0 38 7 55t22 17h582q-34 146 -34 301v143q0 160 -11 209t-39 76t-80.5 39.5t-142.5 12.5q-52 0 -111.5 -4t-120.5 -13q-16 -2 -23 13.5t-7 51.5q0 41 6.5 55.5t24.5 17.5q57 10 118.5 14.5t117.5 4.5
q131 0 215 -22.5t132 -70.5t69 -128.5t21 -242.5v-158q0 -153 32 -299h137q14 0 21.5 -17t7.5 -55zM226 1210q-17 0 -25.5 12.5t-8.5 43.5t8.5 43.5t25.5 12.5h346q17 0 25.5 -12.5t8.5 -43.5t-8.5 -43.5t-25.5 -12.5h-346z" />
    <glyph glyph-name="uniFB4D" unicode="&#xfb4d;" horiz-adv-x="974" 
d="M837 566q0 -213 -30 -506q-3 -30 -19 -45t-44 -15h-669q-16 0 -22.5 17t-6.5 52q0 38 7 55t22 17h572q21 269 21 414q0 169 -24.5 239.5t-85.5 99t-195 28.5q-105 0 -247 -17q-17 -1 -23.5 14t-6.5 51q0 41 6.5 56t25.5 18q124 18 253 18q186 0 284 -43t140 -144.5
t42 -308.5zM242 1210q-17 0 -25.5 12.5t-8.5 43.5t8.5 43.5t25.5 12.5h346q17 0 25.5 -12.5t8.5 -43.5t-8.5 -43.5t-25.5 -12.5h-346z" />
    <glyph glyph-name="uniFB4E" unicode="&#xfb4e;" horiz-adv-x="1108" 
d="M141 0q-15 0 -22 16.5t-7 52.5q0 38 7 55t22 17h640q21 263 21 414q0 164 -23 234.5t-81 99t-187 28.5h-217l-13 -129q-9 -83 -1.5 -118.5t34.5 -60.5t96 -59l26 -13q11 -5 13 -16t-3.5 -27t-18.5 -40q-16 -30 -26.5 -43t-19.5 -16t-22 4l-38 19q-100 49 -143.5 91
t-56 103.5t-1.5 178.5l19 209q3 27 17.5 41.5t41.5 14.5h326q135 0 220 -25t134 -78.5t71 -144t22 -242.5q0 -103 -8 -241t-22 -265q-3 -30 -18.5 -45t-44.5 -15h-737zM324 1210q-17 0 -25.5 12.5t-8.5 43.5t8.5 43.5t25.5 12.5h346q17 0 25.5 -12.5t8.5 -43.5t-8.5 -43.5
t-25.5 -12.5h-346z" />
    <glyph glyph-name="uniFB4F" unicode="&#xfb4f;" horiz-adv-x="1000" 
d="M360 974l217 -432q56 47 89.5 92t47 97.5t13.5 120.5v179q0 17 19.5 24t64.5 7q46 0 65.5 -7t19.5 -24v-174q0 -77 -12 -132.5t-38.5 -106t-79 -107.5t-119.5 -110l170 -339q9 -17 12.5 -26t3.5 -15q0 -14 -19 -20.5t-67 -6.5q-29 0 -49.5 2t-32 8t-19.5 21l-424 848
q-11 23 -25.5 33t-43.5 10h-65q-27 0 -43.5 15.5t-16.5 44.5v386q0 17 19 24t65 7t65.5 -7t19.5 -24v-306h16q67 0 95 -18.5t52 -63.5z" />
    <glyph glyph-name="uni05B1_uni05BD.ccmp" 
d="M268 -215q0 45 16.5 60.5t57.5 15.5q40 0 55.5 -15t15.5 -59q0 -45 -16 -60.5t-57 -15.5q-40 0 -56 15t-16 59zM134 -448q0 45 16.5 60t57.5 15q39 0 55 -14.5t16 -59.5t-16.5 -60.5t-56.5 -15.5t-56 15t-16 60zM0 -215q0 45 16.5 60.5t57.5 15.5q39 0 55 -15t16 -59
q0 -45 -16.5 -60.5t-56.5 -15.5t-56 15t-16 59zM659 -489q0 -17 -13.5 -25.5t-46.5 -8.5t-47 8.5t-14 25.5v316q0 16 14 24.5t47 8.5t46.5 -8.5t13.5 -24.5v-316zM929 -449q0 -45 -16 -60t-57 -15q-40 0 -56 14.5t-16 59.5t16.5 60t57.5 15q40 0 55.5 -14.5t15.5 -59.5z
M929 -213q0 -45 -16 -60.5t-57 -15.5q-40 0 -56 15t-16 59q0 45 16.5 60.5t57.5 15.5q40 0 55.5 -15t15.5 -59z" />
    <glyph glyph-name="uni05B2_uni05BD.ccmp" 
d="M380 -153q17 0 25 -13t8 -44q0 -30 -8 -43t-25 -13h-347q-16 0 -24.5 13t-8.5 43q0 31 8.5 44t24.5 13h347zM659 -489q0 -17 -13.5 -25.5t-46.5 -8.5t-47 8.5t-14 25.5v316q0 16 14 24.5t47 8.5t46.5 -8.5t13.5 -24.5v-316zM929 -449q0 -45 -16 -60t-57 -15
q-40 0 -56 14.5t-16 59.5t16.5 60t57.5 15q40 0 55.5 -14.5t15.5 -59.5zM929 -213q0 -45 -16 -60.5t-57 -15.5q-40 0 -56 15t-16 59q0 45 16.5 60.5t57.5 15.5q40 0 55.5 -15t15.5 -59z" />
    <glyph glyph-name="uni05B3_uni05BD.ccmp" 
d="M264 -261v-223q0 -16 -13 -24.5t-44 -8.5q-32 0 -44.5 8.5t-12.5 24.5v223h-117q-16 0 -24.5 12t-8.5 41q0 31 8.5 43t24.5 12h348q16 0 24 -12t8 -42t-8 -42t-24 -12h-117zM659 -489q0 -17 -13.5 -25.5t-46.5 -8.5t-47 8.5t-14 25.5v316q0 16 14 24.5t47 8.5t46.5 -8.5
t13.5 -24.5v-316zM929 -449q0 -45 -16 -60t-57 -15q-40 0 -56 14.5t-16 59.5t16.5 60t57.5 15q40 0 55.5 -14.5t15.5 -59.5zM929 -213q0 -45 -16 -60.5t-57 -15.5q-40 0 -56 15t-16 59q0 45 16.5 60.5t57.5 15.5q40 0 55.5 -15t15.5 -59z" />
    <glyph glyph-name="uni05C4.ccmp" 
d="M100 1332q0 -56 -22 -77t-79 -21q-56 0 -77 20.5t-21 74.5q0 56 21.5 77t78.5 21q56 0 77.5 -20.5t21.5 -74.5zM-231 1051z" />
    <glyph glyph-name="uni05C4.ccmp_uni05C4.ccmp.ccmp" 
d="M-84 1317q0 -55 -20 -75t-74 -20t-73 19.5t-19 72.5q0 56 19.5 76t73.5 20q55 0 74 -20t19 -73zM270 1317q0 -55 -20 -75t-74 -20t-73 19.5t-19 72.5q0 56 19.5 76t73.5 20q55 0 74 -20t19 -73zM-402 1051z" />
    <glyph glyph-name="glyph4193" horiz-adv-x="1131" 
d="M1013 857q0 -77 -11 -129t-34.5 -96.5t-66 -96.5t-128.5 -138l246 -336q12 -15 17 -24.5t5 -16.5q0 -14 -19.5 -20t-64.5 -6q-37 0 -59 2.5t-35 8.5t-24 20l-441 607q-53 -70 -73 -112t-28 -97t-8 -183v-215q0 -17 -19.5 -24t-63.5 -7q-45 0 -64 7t-19 24v210
q0 143 14 215.5t49 138.5t117 166l-177 241q-12 15 -16 24.5t-4 15.5q0 14 20 20t65 6q50 0 74.5 -5.5t38.5 -24.5l375 -515q78 80 108 123t43.5 90.5t13.5 121.5v179q0 17 19 24t65 7t65.5 -7t19.5 -24v-174z" />
    <glyph glyph-name="glyph4198" horiz-adv-x="1178" 
d="M1030 25q0 -18 -19.5 -24.5t-63.5 -6.5q-46 0 -66 7t-20 24v556q0 114 -16 175t-53 95.5t-101.5 49.5t-171.5 15h-349q-17 0 -23.5 16.5t-6.5 52.5q0 37 7 54t24 17h361q142 0 237 -24t152 -75t83 -136t26 -227v-569zM322 25q0 -17 -19.5 -24t-65.5 -7t-65 7t-19 24v563
q0 17 19 24.5t65 7.5t65.5 -7.5t19.5 -24.5v-563z" />
    <glyph glyph-name="glyph4203" horiz-adv-x="1143" 
d="M1053 671q0 -210 -73.5 -366t-211.5 -239t-327 -83q-98 0 -184 14q-32 5 -48 22.5t-20 50.5l-80 946q-2 29 16 37t68 8t66.5 -5.5t18.5 -27.5l76 -896q42 -8 100 -8q134 0 229.5 62t145.5 182.5t50 288.5v8q0 92 -20 146t-60.5 79.5t-104.5 25.5h-108q-16 0 -22.5 17
t-6.5 53t6.5 53t22.5 17h122q116 0 192 -41t114.5 -125.5t38.5 -210.5v-8z" />
    <glyph glyph-name="glyph4206" horiz-adv-x="929" 
d="M781 -333q0 -17 -19 -24t-66 -7q-46 0 -65 7t-19 24v961q0 148 -19.5 200t-72.5 73t-170 21q-62 0 -136.5 -3t-159.5 -10q-16 -1 -23 13.5t-7 51.5q0 41 6.5 56t25.5 17q139 15 293 15q171 0 263 -37.5t130.5 -122t38.5 -264.5v-971z" />
    <glyph glyph-name="glyph4212" horiz-adv-x="1197" 
d="M347 881q95 97 188 145.5t182 48.5q121 0 196.5 -56t110.5 -171.5t35 -300.5q0 -113 -6 -241t-17 -246q-2 -30 -18 -45t-44 -15h-451q-15 0 -22.5 16.5t-7.5 53.5t7.5 54t21.5 17h353q15 224 15 393q0 154 -19.5 238.5t-63 122t-118.5 37.5q-70 0 -145 -47.5t-167 -147.5
l-122 -712q-2 -17 -22.5 -24t-66.5 -7q-45 0 -63.5 6.5t-16.5 24.5l117 684q6 36 1 63t-25 73l-68 151q-10 23 -11 35t6.5 18.5t25 9.5t51.5 3q50 0 68.5 -5t27.5 -25z" />
    <glyph glyph-name="glyph4218" horiz-adv-x="1081" 
d="M279 916l-16 -163q-9 -84 -2 -122t34 -63t97 -59l25 -13q16 -9 13.5 -27t-22.5 -57q-18 -34 -29 -46t-20 -12.5t-19 3.5l-38 19q-75 38 -115.5 68t-63 68.5t-27.5 93.5t3 144l23 250q3 27 18 41.5t41 14.5h351q121 0 198 -22.5t121.5 -72t63 -130t18.5 -202.5v-962
q0 -17 -19 -24t-66 -7q-46 0 -65 7t-19 24v947q0 129 -19 191.5t-69.5 86.5t-155.5 24h-241z" />
    <glyph glyph-name="glyph4220" horiz-adv-x="1124" 
d="M141 0q-15 0 -22 16.5t-7 52.5q0 38 7 55t22 17h656q20 263 20 414q0 163 -23 234t-83.5 99.5t-194.5 28.5h-222l-13 -129q-9 -83 -1.5 -118.5t34.5 -60.5t97 -59l25 -13q11 -5 13 -16t-3.5 -27t-18.5 -40q-16 -30 -26.5 -43t-19.5 -16t-22 4l-38 19q-100 49 -143.5 91
t-56 103.5t-1.5 178.5l19 209q3 27 17.5 41.5t41.5 14.5h331q139 0 225.5 -25t137 -78.5t72.5 -144t22 -242.5q0 -103 -8 -241t-21 -265q-3 -30 -19 -45t-44 -15h-753z" />
    <glyph glyph-name="glyph4224" horiz-adv-x="1105" 
d="M322 -333q0 -17 -19 -24t-66 -7t-65.5 7t-18.5 24v921q0 17 18.5 24.5t65.5 7.5t66 -7.5t19 -24.5v-921zM1016 736q0 -77 -24.5 -177.5t-69.5 -212.5l-130 -319q-8 -21 -28 -27t-73 -6q-45 0 -60.5 5t-15.5 19q0 9 8 28l136 338q43 104 64.5 190t21.5 149
q0 74 -25.5 114.5t-83.5 59.5t-158 19h-408q-17 0 -23.5 16.5t-6.5 52.5q0 37 7 54t24 17h422q147 0 240.5 -34.5t138 -105t44.5 -180.5z" />
    <glyph glyph-name="glyph4227" horiz-adv-x="1425" 
d="M377 140q110 -18 224 -18q198 0 318.5 81t179.5 251t59 441v136q0 17 19 24t65 7q47 0 66 -7t19 -24v-130q0 -312 -81 -515t-244.5 -303t-414.5 -100q-71 0 -159.5 9.5t-129.5 18.5t-58.5 23.5t-21.5 42.5l-141 942q-3 17 3 26t23.5 13t52.5 4q47 0 67.5 -6.5t23.5 -24.5
l66 -447q134 -6 200.5 22t94 100.5t27.5 245.5v79q0 17 18 24t64 7q44 0 62 -7t18 -24v-75q0 -203 -47 -311t-149 -155t-270 -39z" />
    <glyph glyph-name="glyph4229" horiz-adv-x="1253" 
d="M419 308q0 -107 -27 -174.5t-83 -100.5t-148 -33h-76q-16 0 -23.5 16t-7.5 53q0 38 7.5 55t21.5 17h72q47 0 71 40t24 119v616h-158q-17 0 -24 16.5t-7 52.5q0 37 7.5 54t23.5 17h514q187 0 295 -44t155.5 -140t47.5 -278v-569q0 -17 -19 -24t-65 -7t-65.5 7t-19.5 24
v556q0 144 -29 211t-100 95.5t-212 28.5h-175v-608z" />
    <glyph glyph-name="uni05D2_uni05BF.ccmp" horiz-adv-x="755" 
d="M680 44q4 -22 -2.5 -31.5t-23 -14t-56.5 -4.5q-35 0 -51.5 2.5t-24.5 10t-11 23.5l-36 230l-372 -256q-29 -21 -46 -21t-24.5 21.5t-7.5 64.5q0 50 8 67t34 34l382 252l-48 301q-15 90 -31.5 127t-45.5 52t-85 15h-107q-15 0 -22 16.5t-7 53.5q0 36 7 52.5t22 16.5h126
q100 0 160.5 -29.5t96 -95t53.5 -182.5zM136 1210q-17 0 -25.5 12.5t-8.5 43.5t8.5 43.5t25.5 12.5h346q17 0 25.5 -12.5t8.5 -43.5t-8.5 -43.5t-25.5 -12.5h-346z" />
    <glyph glyph-name="uni05D3_uni05BF.ccmp" horiz-adv-x="911" 
d="M886 986q0 -36 -6.5 -53t-22.5 -17h-129q-35 -170 -35 -304v-587q0 -17 -19.5 -24t-65.5 -7q-45 0 -64.5 7t-19.5 24v583q0 130 38 308h-509q-15 0 -22 17t-7 53t7 53t22 17h804q16 0 22.5 -17t6.5 -53zM282 1210q-17 0 -25.5 12.5t-8.5 43.5t8.5 43.5t25.5 12.5h346
q17 0 25.5 -12.5t8.5 -43.5t-8.5 -43.5t-25.5 -12.5h-346z" />
    <glyph glyph-name="uni05D4_uni05BF.ccmp" horiz-adv-x="1167" 
d="M1018 25q0 -18 -19.5 -24.5t-63.5 -6.5q-46 0 -66 7t-20 24v556q0 114 -16 175t-53 95.5t-101.5 49.5t-171.5 15h-337q-17 0 -23.5 16.5t-6.5 52.5q0 37 7 54t24 17h349q142 0 237 -24t152 -75t83 -136t26 -227v-569zM322 25q0 -17 -19.5 -24t-65.5 -7t-65 7t-19 24v563
q0 17 19 24.5t65 7.5t65.5 -7.5t19.5 -24.5v-563zM382 1210q-17 0 -25.5 12.5t-8.5 43.5t8.5 43.5t25.5 12.5h346q17 0 25.5 -12.5t8.5 -43.5t-8.5 -43.5t-25.5 -12.5h-346z" />
    <glyph glyph-name="uni05DA_uni05B0.ccmp" horiz-adv-x="912" 
d="M763 -333q0 -17 -18.5 -24t-65.5 -7t-66 7t-19 24v961q0 148 -18.5 200t-69.5 73t-166 21q-59 0 -131 -3t-155 -10q-16 -1 -23 13.5t-7 51.5q0 41 6.5 56t25.5 17q136 15 289 15q165 0 254.5 -37.5t126.5 -122t37 -264.5v-971zM384 340q0 -45 -16.5 -60t-56.5 -15
t-56 14.5t-16 59.5t16.5 60t57.5 15q39 0 55 -14.5t16 -59.5zM384 576q0 -45 -16.5 -60.5t-56.5 -15.5t-56 15t-16 59q0 45 16.5 60.5t57.5 15.5q39 0 55 -15t16 -59z" />
    <glyph glyph-name="uni05DA_uni05B8.ccmp" horiz-adv-x="929" 
d="M781 -333q0 -17 -19 -24t-66 -7q-46 0 -65 7t-19 24v961q0 148 -19.5 200t-72.5 73t-170 21q-62 0 -136.5 -3t-159.5 -10q-16 -1 -23 13.5t-7 51.5q0 41 6.5 56t25.5 17q139 15 293 15q171 0 263 -37.5t130.5 -122t38.5 -264.5v-971zM349 518v-223q0 -16 -13 -24.5
t-44 -8.5q-32 0 -44.5 8.5t-12.5 24.5v223h-117q-16 0 -24.5 12t-8.5 41q0 31 8.5 43t24.5 12h348q16 0 24 -12t8 -42t-8 -42t-24 -12h-117z" />
    <glyph glyph-name="glyph4271" horiz-adv-x="941" 
d="M855 790q0 -70 -31.5 -159.5t-99.5 -213.5l-214 -390q-10 -19 -35 -26t-75 -7q-43 0 -59 5.5t-16 21.5q0 9 8 25l217 390q70 127 101.5 206.5t31.5 136.5q0 50 -22 79t-70.5 43.5t-128.5 14.5h-321q-29 0 -44.5 16t-15.5 44v386q0 17 18.5 24t65.5 7t66 -7t19 -24v-306
h231q98 0 169 -16.5t116.5 -49.5t67 -82.5t21.5 -117.5zM-4 1281q0 -45 -16.5 -60.5t-57.5 -15.5q-40 0 -56 15t-16 59q0 45 16.5 60.5t57.5 15.5q40 0 56 -15t16 -59z" />
    <glyph glyph-name="glyph4272" horiz-adv-x="941" 
d="M855 790q0 -70 -31.5 -159.5t-99.5 -213.5l-214 -390q-10 -19 -35 -26t-75 -7q-43 0 -59 5.5t-16 21.5q0 9 8 25l217 390q70 127 101.5 206.5t31.5 136.5q0 50 -22 79t-70.5 43.5t-128.5 14.5h-321q-29 0 -44.5 16t-15.5 44v386q0 17 18.5 24t65.5 7t66 -7t19 -24v-306
h231q98 0 169 -16.5t116.5 -49.5t67 -82.5t21.5 -117.5zM-4 1281q0 -45 -16.5 -60.5t-57.5 -15.5q-40 0 -56 15t-16 59q0 45 16.5 60.5t57.5 15.5q40 0 56 -15t16 -59zM237 567q0 45 16.5 60.5t57.5 15.5q40 0 56 -15t16 -59q0 -45 -16.5 -60.5t-57.5 -15.5q-40 0 -56 15
t-16 59z" />
    <glyph glyph-name="uni05EA_uni05BF.ccmp" horiz-adv-x="1239" 
d="M419 308q0 -107 -27 -174.5t-83 -100.5t-148 -33h-76q-16 0 -23.5 16t-7.5 53q0 38 7.5 55t21.5 17h72q47 0 71 40t24 119v616h-158q-17 0 -24 16.5t-7 52.5q0 37 7.5 54t23.5 17h502q187 0 294.5 -44t154.5 -140t47 -278v-569q0 -17 -19 -24t-65 -7t-65.5 7t-19.5 24
v556q0 144 -28.5 211t-99.5 95.5t-211 28.5h-163v-608zM418 1210q-17 0 -25.5 12.5t-8.5 43.5t8.5 43.5t25.5 12.5h346q17 0 25.5 -12.5t8.5 -43.5t-8.5 -43.5t-25.5 -12.5h-346z" />
    <glyph glyph-name="uni20AA.sc" horiz-adv-x="1524" 
d="M856 582q0 92 -12 152.5t-44 104.5t-93.5 68.5t-158.5 24.5q-96 0 -222 -12v-895q0 -17 -16.5 -24t-60.5 -7t-60.5 7t-16.5 24v960q0 29 11.5 44.5t36.5 18.5q155 20 334 20q139 0 230.5 -36t140 -99t67 -144.5t18.5 -192.5v-233q0 -17 -16.5 -24t-60.5 -7t-60.5 7
t-16.5 24v219zM514 683q0 18 17 25t60 7t60.5 -7t17.5 -25v-536q114 -22 231 -22q115 0 180 41.5t91.5 116.5t26.5 195v553q0 17 17 24t60 7t60 -7t17 -24v-544q0 -115 -21.5 -203.5t-73.5 -155t-143 -103.5t-224 -37q-148 0 -303 27q-40 8 -56.5 25t-16.5 52v591z" />
  </font>
</defs>
</svg>
